<?xml version="1.0" encoding="utf-8"?>
<!-- Generator: Adobe Illustrator 24.1.2, SVG Export Plug-In . SVG Version: 6.00 Build 0)  -->
<svg version="1.1" id="Layer_1" xmlns="http://www.w3.org/2000/svg" xmlns:xlink="http://www.w3.org/1999/xlink" x="0px" y="0px"
	 viewBox="0 0 917 707.9" style="enable-background:new 0 0 917 707.9;" xml:space="preserve">
<style type="text/css">
	.st0{fill-rule:evenodd;clip-rule:evenodd;fill:#FF8460;}
	.st1{fill-rule:evenodd;clip-rule:evenodd;fill:#42224B;}
</style>
<g id="Illustrations_coffee">
	<path id="Accent" class="st0" d="M231.2,424.9c4.7-3.2,14.2-14.6,19.2-17.2c11.1-5.9,60.7-17.4,62.3-18c2.5-1,18.4-4.7,27.7-6.9
		c21.8-5.4,100-40,120.6-48.9c2.6,6.9,24.3,37.5,20.6,40.6c-12.3,10.2-34.3,23-48.5,30.4c-11.6,5.9-23.6,10.9-35.9,15
		c-13.9,4.6-23.5,9.5-37.4,14.2c-13.7,4.6,2.7,19,9.7,22c7.9,3.3,20.1,5,28.1,7.9c-14.2,22-26.1,48.8-28.5,75.1
		c-0.6,6.3-5.4,12.2-13.3,10.3c-4.1-1-41.5-6-47.7-7.4c-40.8-9.3-114.1-58-95.2-108C217.3,436,227.2,427.6,231.2,424.9z"/>
	<g id="Ink">
		<path id="ink-layer" class="st1" d="M254,159.8c3-0.3,10.9-6.3,6.8-9.4C256.6,147.2,253.6,157.6,254,159.8 M95.2,183.1
			c0.8-0.1,0.4-4.5-0.8-5.1c-4-1.8-4.3,4.8-4.4,6.6c-0.1,2.2-0.4,8.5,4.4,6.8C97.2,190.5,95.5,184.8,95.2,183.1 M329,203.5
			c-0.1,3.9,7.8,11.4,10.7,6.9C342.1,206.6,329.2,195.7,329,203.5 M51,115.7c2.3,5.8,13.5-2.1,14-6.4
			C65.8,100.6,50.9,109.9,51,115.7 M145,140.8c5.2-0.4,12.2-7.1,17.2-9.6c3.4-1.7,12.7-3.7,13.8-7.5c0.9-3.3-14.9,3.8-16.3,4.4
			C153.5,131,147.9,134.3,145,140.8 M538.9,94.8c4.1-3.3,9.3-5.2,14.6-5.2c2.7,0.1,8.3,1.7,8.5-2.9c0.3-7.5-23.3,1.7-27,3.1
			C536.3,91.5,537.6,93.1,538.9,94.8 M278,388.2c-3.1-5.1-8.6-8-12.7-12.4c1.5,7.1-1.9,13.5-4.3,20
			C266.6,393.2,272.3,390.7,278,388.2 M810.8,496.8c1.7-5.7,3.4-11.3,5.4-16.9c2.2-6.2,3.3-6.8-2-11.1L801,493.7
			C804.2,495.2,807.4,496.2,810.8,496.8 M356,87.1c-5.8-6.6-33.1-7-29.7,7.5c1.2,5.1,7.9-0.3,12.1-1.5C342.5,92,354.3,91.8,356,87.1
			 M355,180c-0.7-1.7-2.1-7.7-4.2-8.2c-2-0.5-10.1,5.9-11.6,6.8c-7.5,4.8-14.9,10-22.2,15.1c2.8,0,5.4-1,8.2-1
			c3.3,0,5.7,1.3,8.9,0.6C341,191.6,349.1,183.9,355,180 M362.5,30.3c0.7-3,34.7,6,38.8,7.7c2.2,0.9,13.7,6.9,11.3-2.1
			c-1.4-5.1-14.7-9.1-19-10.5c-10.8-3.6-22.3-6.1-33.8-5.5c-2.2,0.1-19.2,1.1-12.1,7.9C350.1,30.1,358.9,29.4,362.5,30.3 M370,442.5
			c6.4,3.1,12.8,5.5,19.5,8c2.9,1.1,7.5,3.9,10.8,3.2c2.7-0.6,3.5-4.6,4.9-7.4c5-9.6,11.3-18.3,18.8-26.1
			c-3.5-2.6-21.4,8.8-25.8,10.4c-4.4,1.7-8.6,3.4-12.9,5.4C381.2,437.8,373.1,439.5,370,442.5 M482.4,357.8
			c9.3-4.2,18-11.6,25.6-18.3c8.7-7.6,16.5-15.6,22.9-25.5c-3.8,0.2-12.3,12.5-12.4-0.9c0-6.9,9.4-13.6,12.3-20
			c-7.3-4.1-13.9,20.4-22.2,14.5c-8-5.7,4.6-25.4,7.1-31.6c-4.7-3.1-31.5,31.9-35.4,36.4c-2.4,2.8-8.2,6.5-9.5,9.8
			c-0.8,1.9-0.9,8.1-0.5,9.9c0.8,3.7,5,8.2,6.8,11.7C479.5,348.2,481.3,352.9,482.4,357.8 M865.1,484.1c-8-11.3,0.3-16.2,6.8-25.6
			c5.3-7.5,9.8-15.6,13.3-24.1c8.3-21,15.7-40.4,19.8-62.6c-5.6,2.6-9.1,12.3-11.9,17.4c-3.8,6.9-7.1,14.1-11.3,20.8
			c-7.8,12.5-15.6,25.9-25.5,36.7c-4.5,4.9-8.4,10.4-13.6,14.9c-2.4,2-6.9,3.7-8.7,6.2c-1.7,2.4,0.2,3.9-0.4,6.8s-3.6,6-4.9,8.9
			c-1.7,3.7-3.2,7.4-5.1,11c-1.7,3.1-2.8,6.4-3.1,9.9c-0.6,4.2,1.2,4.7-2.4,8.5c6.7,2.9,13.4,5.9,20,8.8c2.3,1,4.5,2,6.8,3
			c0.5-0.9,1-1.8,1.4-2.7c1.8-1.8,3.5-6.2,4.6-8.5C855.2,503.7,860.1,493.9,865.1,484.1 M220.3,436.7c-19,49.9,47.7,91.9,88.7,101.2
			c5.7,1.3,11.2,3,16.9,4.4c6.2,1.5,11.6,1.2,17.8,1.8c4.9,0.5,7.2,4.3,11.8,5.3c7.7,1.7,7.2-4.1,7.8-10.3
			c2.3-26.3,15.8-51.7,30-73.7c-6.5-2.3-12.9-4.9-19.3-7.4c-5.5-2.2-13.9-8.3-19.8-8.6c-4.4-0.2-11,3.5-15.2,5.1
			c-7,2.7-14.2,5-21.5,6.9c-12.9,3.2-27.2,7.7-40.5,8c-3.8,0.1-14.4,1.9-17.1-0.5c-5.3-4.5,2-8.3,6.4-9.9
			c26.3-9.6,54.2-13.7,80.5-23.6c13.6-5.1,27-10.7,40.6-15.7c11.8-4.3,24.1-8.1,35.4-13.4c15-7,30.1-15.7,43.1-26
			c2.6-2.1,8-5.1,9.8-8.1c1.6-2.6,1.4,0,1-3.2c-0.2-2.3-3-5.4-4.2-7.5c-4.3-8-8.2-16.3-11.4-24.8c-20.7,8.9-40.4,21-60.9,30.5
			c-20.6,9.6-43.7,16.3-65.7,21.7c-9.4,2.3-20.1,3-28.7,7.5c-3.6,1.9-7.3,4.1-11.2,5.3c-1.2,2.2-2.3,2.6-3.4,1.3
			c-0.7-0.8-1.7-1.1-2.7-1c-2.4,0.6-4.8,1.4-7.1,2.4c-11.3,4.4-22.1,9.9-32.9,15.5c-5.1,2.7-10.3,5.3-15.2,8.3
			c-2.6,1.5-5,3.4-7.1,5.5C223.8,436.4,224.4,438.6,220.3,436.7 M647,140.3c4.8,0.1,9.2-2.5,14.2-2.4c7.9,0.2,14.1,6.3,18.6,12.2
			c9,11.6,6.7,25.6,2.2,38.7c-2.2,6.2-5.1,12.2-8.9,17.6c-3.3,4.8-9.2,9.4-11.5,14.7c-3.8,8.8,3.9,5.1,8.5,3.2
			c5.9-2.3,11.4-5.4,16.4-9.3c22.3-17.7,39.2-42.4,44.9-70.7c2.8-13.8,2.6-30-7.1-41.3c-8.8-10.3-24-13.7-37-11.8
			c-14,2.1-26.8,8-38.2,15.7c-3.3,2.2-6.4,4.7-9.5,7.1c-4.1,3.3-6.5,3.3-5.5,8.5c0.8,3.8,2.8,7.7,4.2,11.4
			C640.9,140.8,640,142.5,647,140.3 M662.2,258.1l-1,1.7c6.7,0.3,12.9-5.6,18.6-8.5c7.4-3.7,14-8.8,20.4-14
			c11.4-9.1,23-19.3,31.5-31.3c19.1-26.7,36.4-60.7,31.2-94.6c-5.6-36.5-37.6-50.6-71.6-45.8c-15.4,2.2-29.1,9-42.8,16
			c-6.9,3.5-12.8,8.1-19.1,12.5c-3.3,2.3-6.3,2.6-6.5,6.6c-0.2,3,5,9.8,6.5,12.6c17.2-17.6,35.8-32.2,61.9-33.1
			c31-1.1,49.3,28.3,49.2,56.5c-0.1,27.6-12,54.1-31,74c-8.6,9-16.8,16.2-27.4,22.8c-5.3,3.3-9.2,6.2-15.1,8.4
			c-4.2,1.5-3.7,0.7-4.8,4.6C661.3,249.7,662.2,254.7,662.2,258.1 M493.8,633c-0.5,5-1.3,9.9-2.5,14.7c-0.4,1.7-2.7,7.2-2.3,9.2
			c0.7,3.2-0.2,1.2,2.6,2.8c3,1.8,6.4,1.7,9.6,2.2c2,0.3,9.3,3.8,10.6,3.2c2.2-1,2.1-4.3,4.4-5.6c3.2-1.8,8-0.3,11,1.2
			c8.1,3.8,13.7,11.6,21.6,15.9c14,7.6,30.5,11.8,46.1,13.6c8.4,0.9,17.1,2.6,25.4,0.6c6.6-1.6,15.1-1.4,18.7-8.5
			c-31.7-8.7-80.1-19.4-92.6-55.8c-6.8,6.2-18.2,2.9-26.4,2c-9.1-0.9-17.2-0.7-25.4-4.8C494,626.8,493.7,629.9,493.8,633
			 M213.2,407.7c14.9,0.9,29.1-6.2,38.3-18.1c2.3-2.9,4.6-5.9,5.9-9.4c0.3-0.9,0.6-1.8,0.9-2.6c1.4-2.4,0.8-3.6-1.9-3.4
			c-1.5-2.1-5.3-2.8-4.2-6.5c0.8-2.8,3.8-2.9,6.5-3.8c-1.1-1.9-2.4-3.7-4-5.2c-4.9,4.4-13.7,12.9-17.1,2.9
			c-1.6-4.8,1.2-9.4,0.5-14.1c-0.3-1.9-2.7-6.8-4.1-8c-7.5-6.1-18.4-3.6-26.3,0c-5.5,2.5-6.7,3.7-7.6,9.3
			c-0.9,5.8-1.8,11.6-2.8,17.4c3.3-1.7,3.9-5.4,6.1-8.1c0.8,1.5,1.6,2.9,2.4,4.4c1-0.6,2.3-0.6,3.2,0.1c1.6,2.4,0.6,6.1,0.1,8.6
			c5.3-0.5,7.6,5.4,2.2,7.8c-5.5,2.5-8-4.3-8.2-8.7c-2.1,2.5-4.2,1.1-5.6,2.4s-2,3.9-2.5,6.8c-0.8,4.8-3,11.6-1,16.4
			C196.8,403.1,206.2,406.8,213.2,407.7 M645.6,179.7c-4.9,6.9-13.4,15.9-15.1,24.2c5.4-3.2,16.9-18.5,19.9-6.3
			c1.7,7-7,15.4-9.2,22.2c8.6-2.8,14.7-11.7,20-18.5c6.8-8.7,13.8-20.2,15.5-31.2c1.4-8.6-4.4-16.7-13-18.1c-0.3-0.1-0.7-0.1-1-0.1
			c-4.8-0.3-9.6,0.2-14.2,1.4c-2.1,0.5-5.2,1.1-7,2.2c-2.3,1.4-2.6,4.7-4.8,1.9l-8.7,16.5c2.9-1.1,8.8-5.5,12-5.1
			C644.6,169.5,645.5,176.3,645.6,179.7 M183.3,45.4c-13.2,0.5-26.2,3-38.7,7.2c-3,1-15.9,4.6-13.2,9.9c1.8,3.5,11.4-1.4,14.3-2.3
			c12.5-3.5,25.3-5.8,38.1-7.9c3.1-0.5,13.6-0.5,14.1-4.5C198.6,42.9,186.9,45.4,183.3,45.4 M535.6,610.2
			c-6.9,0.8-13.9,0.6-20.8-0.3c-5.9-0.7-11.9-3.1-17.8-3.1c0,6.3-0.4,6.3,6.2,7.7c4.6,0.9,9.3,1.5,14,2.1c8.2,1.2,17.4,4.4,25.8,2.7
			c-0.2-1.1-0.8-8.5-1.7-9.2C540.8,609.7,536.3,610.2,535.6,610.2 M422.2,144.4c2,1.2,6.5,6.2,8.8,6.3c-0.8-5.8-7.3-15.8-14.7-12.3
			c-1.8,0.9-5.6,5.2-3.9,7.1C413.3,146.7,419.8,144.4,422.2,144.4 M353.8,195.8c0.1-1,0.1-2,0.2-3c-2.7,1.6-6.1,2.4-8,4.9
			c2.3,1,4.6,2.1,6.9,3.1C353.2,199.1,353.5,197.4,353.8,195.8 M567.4,349c12.8,4.5,24.6,10.5,34,20.7c8.2,8.8,12,24.3,14,35.8
			c4.9,28.5-4.6,55-10.8,82.3c-3.2,13.9-7.9,27.2-12.4,40.7c-3.9,11.8-7.2,24.1-12.6,35.3c-4.5,9.5-10.3,18.9-14.3,28.7
			c-2.2,5.3-5.6,23.5-13.8,17.8c-2.2,5.8-2.8,5.3-0.4,9.4c1.7,2.9,7.6,7,10.3,9.4c7.4,6.4,16.7,11.6,25.3,16
			c15.8,8.2,32.7,14.2,49,21.7c7.2,3.3,15,7.2,13.4,16.6c-1.2,7.6-6.1,14.1-13,17.4c-6.7,3.3-16.2,5.8-23.6,6.9
			c-4.4,0.6-5.4-1.2-8.9-1.8c-4-0.7-8.6,0.7-12.7,0.6c-18.3-0.2-34.4-4.8-49.2-15.4c-5.3-3.8-13.1-14.1-20-14.1
			c-3.5,0-2.8,2.2-5.9,3.4c-3.8,1.6-10.5-1.4-14.2-2.1c-8-1.5-16.2-3-21.6-9.9c-5.8-7.5-3.7-16.8-1.2-25.1
			c2.8-9.4,7.5-18.9,9.5-28.4c0.6-3,0.8-6,0.4-9c-0.8-3.7-4.5-5.8-4.6-9.8c0-1.2,1.7-2.8,2-4c0.7-2.7,0.6-5.6,0.8-8.3
			c0.5-5,1.6-9.7,2.4-14.6c1.8-11.1,5.3-21.1,8.7-31.8c3.3-10.4,6.4-18.2,12.8-27.2c3.3-4.7,14.3-21.3,8.9-26.1
			c-7.3,14.4-15.9,25.7-27.2,37.2c-8.6,8.8-17,20.6-27.8,26.9c-11.8,6.9-26.3,10.9-39.4,14.6c-6.2,1.7-11.4,5.6-18.1,6.3
			c-7.3,0.7-14.7,0-21.8-1.8c-2-0.5-7.8-3.5-9.6-3.3c-2.7,0.3-6.5,5-9.4,5.9c-7.1,2.1-12-1.9-17.4-5.7c-5.9-4.1-7.6-5.1-14.4-5.6
			c-8.3-0.6-16.4-3.5-24.5-5.3c-14.3-3.1-26.5-9.5-39.6-16.2c-14.9-7.6-27.7-18.2-39-30.7c-16.6-18.3-39.6-69.1-12.6-86.9
			c-15.9-2.2-30.5-9.1-32.4-27.1c-1-9.4,0.9-19.9,3.3-29c1.1-4.2,2.4-8.3,3.6-12.4c0.9-1.4,1.4-3,1.5-4.6c0.6-2.1-0.3-3.2-2.5-3.2
			c-4.2-4.9-7.3-9.2-8.2-16.2c-0.3-2.2-0.5-5.6,1.1-7.5c0.7-0.8,1.6-1.3,2.6-1.5c2.5,0.1,3.2-1.1,2.1-3.6c1.2-3.6-0.6-6.5,3.9-8
			c1.4,0.3,2.9,0.6,4.3,1c1.8,0.8,3,0.2,3.6-1.8c4.2-1.7,2.3-4.1,8-2c3.5,1.3,6.7,3.4,9.3,6.2c3.2-2-4.1-14.7-4.3-18.7
			c-0.6-9.5,3.4-17.3,8.5-25.1c9.9-15.2,23.8-28.2,37.4-39.9c26.2-22.5,53.7-43.8,83.2-61.7c-12.2-8.5-26.4-10.8-40.9-6.8
			c-13.4,3.6-24.2,10.2-36.5,16c-11.4,5.3-23.5,7.5-27.1-7c-4.1-16.3,8.9-22.4,20.6-29.7c-2.9-2.2-12.5-0.6-16.1-0.4
			c-8.1,0.6-15.8,2.4-23.6,4c-3.8,0.8-7.2,0.6-10.9,1.4c-5.5,1.1-11.3,2.4-16.9,4c-13.5,3.8-26.4,9.6-38.1,17.4
			c-10,6.7-16.9,16.3-24.9,25c-9.2,10-17.9,19.8-31.5,23.5c-6.4,1.7-13.8,3.3-18.3-2.4c-4.2-5.3-4.4-11.6-4.3-18.1
			c0.3-14.3,7.2-29.7,15.2-41.3c8.7-12.6,20.3-19.9,31.3-30.1C106,121,90.6,129.4,76,135.2c-3.1,1.2-6.2,2.6-9.3,3.7
			c-3.3,1.2-5.5,0.5-8.6,1c-7.2,1.3-13.4,4.3-20.4-0.5c-13.3-9.2,0-27.8,9.2-33.6c12.6-8,25.9-14.8,39.7-20.4
			c-7.6-8.2-1.1-20,5.9-25.8c8.9-7.4,20.1-11.6,30.8-15.6c8.4-3.1,16.7-6.1,25.5-8c9.2-2,20-5,29.3-4.7c8.8,0.3,16.5-1.3,25.4-1.5
			c7.4-0.2,14.8,0,22.2-0.2c19.9-0.5,39.8,0.8,59.3,2.3c-15.4-45,86-31.1,107.7-25.2c19.7,5.3,42.2,11.5,58.7,24.2
			c7,5.5,13.6,11.4,19.9,17.7c9.2,9.2,14.2,21.4,19.1,33.3c12.3-6,24-12.6,37.5-15.6c12.8-2.8,25.9-6.7,38.8-8.8
			c9.8-1.6,24-2.7,32.2,4.2c8.9,7.5,13.6,19.2,18.9,29.2C643.4,66.6,672,48.8,708.6,50c35.8,1.2,59.3,32,63.6,65.5
			c4.8,36.9-11.7,75.4-33.9,104c-10,12.8-20.3,25.2-33.8,34.7c-6.7,4.7-13.7,9.9-21,13.6c-3.7,1.9-7.6,3.5-11.5,4.9
			c-1.7,0.7-3.5,1.2-5.3,1.7c-5.1,1.2-4.1-0.4-6,4.1c-1.5,3.6-1.4,9.9-2,13.9c-0.8,4.6-1.2,9.2-2.3,13.7c-1.9,7.8-3.9,15.4-6.3,23.1
			c-4.6,14.6-10.6,28.8-18.1,42.2c6.3,2.8,15.2,3,22,3.9c7.5,1.1,15,2.7,22.3,4.9c15.3,4.3,28.9,7.9,43.5,14.3
			c15.1,6.6,28.5,16.6,43.1,24.5c13.4,7.3,26.9,16.4,39.3,25.1c2.6,1.8,5,4,7.1,6.5c1.8,2,3.8,3.9,6,5.5c1.3,1,5.1,6.3,6.5,6.5
			c2.6,0.4,2.2-1.6,4.3-4.4c4.3-5.8,10.4-10.2,14.7-16.1c3.5-4.9,7.2-9.7,11.2-14.2c9.2-10.3,17.1-21.7,23.6-33.9
			c3.4-6.4,7.1-12.5,10.8-18.5s10.3-13.9,17.7-13.6c-0.6-3.1-2.5-3.6,0.8-5.4c2.1-1.2,6.2,0.7,7.8,2c4.3,3.2,4.5,9.5,4.2,14.3
			c-0.8,12.1-3.1,24.1-6.8,35.7c-4.3,13.8-9.6,26.1-15.5,39.3c-4.7,10.5-10.4,24.4-22,29.3c7.8,11.1,4,20.1-1.2,31.9
			c-3.8,8.6-8.8,17.5-16.4,23.2c-8.6,6.4-17.9,1-26.9-3.3c-5.4-2.6-22.1-8.6-18.7-16.5c-4.2-0.6-6.8-3.6-10.5-4.5
			c-4-1-3.3,0.6-7.6,1.3c-3.2,0.5-8.1-2.4-11.2-3.5c-5.1-1.7-10.2-3.5-15.3-5.3c-14.4-4.9-28.5-9.8-43-13.8
			c-27-7.4-54.3-11.6-81.2-18.1c-5.4-1.3-10.7-2.6-16.4-3.6c-1.2-0.2-7.2-0.6-7.9-1.8c-1.3-2.2,2.7-14.3,3-16.8
			c2.1-16.7,1.6-33.7-1.6-50.2c-1.3-6.7-7.1-15.3-7-21.9c0-4.4,3.9-9.2,6.2-13.1c5.6-9.8,11.5-20.4,15.7-30.6
			c6.4-15.6,10.3-33.2,13.1-49.9c1.5-8.7,3.2-18.2,3.6-27c0.3-6.7-0.2-13.8,0.7-20.7c-3.7,0.4-9,2.3-12.3,0.2
			c-4.2-2.6-5.4-10-4.8-14.5c-14.5,2.5-14-11.2-13.1-22c-26.2,0,7.3-38.9,11.5-47.3c1.9-3.8,1.9,0.5,1-5.5c-0.4-2.6-2.2-5.5-3.2-7.9
			c-2.2-5.2-4.6-10.4-7.1-15.5c-5.4-10.7-11.4-21.1-18.1-31.1c-5.9,4.2-11.4,9-16.3,14.4c3.2-8.4,13-18.7,8.8-28.2
			c-3.9-8.8-16.8-8.2-24.5-6.6c-20.8,4.4-40.7,10.8-60.5,18.1c6.1,3.5,15.5,0.8,21.6-1.9c7.5-3.3,15.7-6.8,23.8-8.6
			c7.1-1.5,16.4-1,14.4,8.5c-1.7,7.7-9.2,15.2-14.2,21c-11,12.7-24.8,22.6-38.4,32.5c-14.6,10.6-28.6,22.1-43.4,32.4
			c-26.7,18.6-55.3,34.8-82.9,52.1c-14.3,9-30.5,16.3-46.1,23c-17.1,7.4-33.5,15.2-51.2,21c-9.8,3.2-19.6,5.9-29.3,9.6
			c-6.1,2.3-16.6,6.9-20.6,0.1c-8.1-13.9,21.3-32.1,29.4-40.6c5.6,5.4-21.9,25.5-19.7,33.4c1.7,6.2,8.2-1.8,11.4-3.5
			c5.1-2.7,11.1-4.1,16.2-7.2c10.5-6.4,22.9-13.7,25.3-26.9c-1.7-1.8-1.6-3.4,0.1-4.9c0.8-0.9,1.4-1.9,1.8-3
			c0.6-2.3,1.1-4.6,1.4-6.9c1.2-6.5-1.8-12.6,1-18.9c-16.2,12.3-31.7,26.1-47.1,39.4c-13.8,11.9-28.2,27.5-33.2,45.3
			c-0.6,2.3-1.7,4.9-1.6,7.3c0.2,4.7,0.7,3.7,4.5,5.2s9.3,1.4,13.4,1.5c2.3,0.1,12.7-2.4,10.7,2.7c-1.2,2.9-8.4,2.8-11,3.1
			c-6.5,0.7-10,0-6.9,7c1.4,3.1,4.2,5.3,6.4,7.7c6.1,6.8,9.4,17.2,14.2,25.1c5.5,9.1,11.5,17.7,17.8,26.2c2.6,3.5,6.1,10,9.8,12.5
			c3.4,2.3-0.6,2.1,5.1,1.2c2.5-0.4,4.7-2,7.1-2.6c14.1-3.4,28.6-7.3,43.2-11.5c18.6-5.4,38.2-10,56-17.8
			c15.9-7,31.7-15.3,47.8-22.4c4.7-2.1,9.4-3.4,13.1-7.2c4.4-4.6,8.1-10.6,12.1-15.5c6.9-8.4,13.3-16.9,20.7-24.9
			c5.5-5.9,15.4-16.9,23.2-19.3c14.9-4.5,6.9,18.1,5,23.9c3.5,0.8,5.3-3.7,9.4-2.4c4.9,1.5,5.4,8.1,6,12.2c0.2,1.1-1.3,3.1-0.9,4.1
			c0.2,0.3,3.4,2.2,4,3.1c2.2,3.2,1.8,7.1,1,10.5c-4.4,17.8-20,30.8-31.5,44c5.1-1,9-3.9,13.8-5.4c4.6-1.4,9.1-1.3,13.7-1.7
			c4.8-0.4,9.4-2.2,14.3-2.3C557.4,346.9,562.3,348.4,567.4,349"/>
		<path id="ink-layer-2" class="st1" d="M23.7,188.8c-2.8,1.9-3.6,3.7-3.7,7.9c0,1.8,0.1,8.3,2.5,8C24.8,204.5,23.7,191,23.7,188.8
			 M9.1,199.4c1.3-13.7,6.3-27.6,18.1-36.2c2.9-2.1,6.2-2,9.4-3.4c1.9-0.8,5-4.5,7.1-4.1c8,1.6-1.2,12.3-2.6,15.1
			c-4.2,8.7-3.9,16.3-3.8,25.7c0.1,7.1,1.6,19.1-2,25.6c-3.8,6.9-12.1,2.4-16.8-1.7C12.7,215.4,8.3,207.2,9.1,199.4"/>
		<path id="ink-layer-3" class="st1" d="M150,239.9c0,7.6,6.2,2.5,6-3C155.7,228.9,149.7,233.9,150,239.9 M183,197.6
			c-6.8,6.1-12,9.5-13.3,18.9c-1,7.1,0,14.2,0,21.3c0.1,12-9.6,24.6-20.1,10.9c-7.6-10-4.9-25.8,1.3-35.9
			c3.3-5.5,7.9-10.3,13.3-13.8C168.3,196.5,179.6,191.6,183,197.6"/>
		<path id="ink-layer-4" class="st1" d="M88.1,382.8c-0.8,1.9-2.6,9.5,1.1,7.7C92.6,389,90.4,384,88.1,382.8 M68.2,359.3
			c-0.6-2.9-0.3-20.8,4.6-19.4c3.9,1.1,4.5,10.2,6.1,13.4c5.9,11.9,19.4,19.3,24,31.6c5.2,13.7-10.5,14.1-18.9,8.6
			C74.2,386.9,68.5,370.8,68.2,359.3"/>
		<path id="ink-layer-5" class="st1" d="M56.1,285.8c2.1-2.9,2.4-4.4,1.1-7C55.7,280.5,56,282.9,56.1,285.8 M57.6,298.7
			c-11.2,1.3-11.7-19.3-9.8-26.4c1.8-5.9,4.5-11.4,8.2-16.3c0.7-0.9,7.1-9.2,8.4-9.3c4.9-0.1,3.5,5.4,3,7.5
			c-1.7,6.2-2.4,12.6-1.9,19C66,280.8,69.6,299,57.6,298.7"/>
		<path id="ink-layer-6" class="st1" d="M565,120.4c-16,13.4-31.1,27.9-48.5,39.6c-8.5,5.7-17.4,10.8-25.9,16.6
			c-4.3,3-8.8,5.6-13.5,7.8c-4.2,1.9-7,2.2-3.5-2.4c2.3-3.1,7.6-5.2,10.8-7.4c4.9-3.3,9.6-7.1,14.7-10c9.1-5.2,18.2-9.5,26.6-15.9
			c7.5-5.7,15.2-11.3,22.3-17.3C551.1,128.9,561.2,116.9,565,120.4"/>
		<path id="ink-layer-7" class="st1" d="M565.3,168.8c7.2,6.1-10.8,23-14.9,26.8c-4.3,4-9.1,7.6-13.8,11.2c-1.7,1.3-10.7,9.7-13,9
			c-4.5-1.3,1.4-6.8,3-8.2c5-4.6,10.1-9.1,15-13.8c4.4-4.3,9.2-8.2,13.4-12.6C558.5,177.5,561.4,171.5,565.3,168.8"/>
		<path id="ink-layer-8" class="st1" d="M33,416.5c-1.9-4.3-5.2,0.5-3.5,2.6C31.1,421.2,32.7,417.4,33,416.5 M22,407.9
			c1-6.4,3.3-9.9,9.3-4.5c4.1,3.7,12.4,14.4,11.6,20.2c-1,7.6-9.4,5.5-13.8,1.5S22.7,413.6,22,407.9"/>
		<path id="ink-layer-9" class="st1" d="M35.1,533.7c-7.3-0.6-13.6-6.2-16.7-12.8c-2.6-5.6-5.1-14.5,4.1-11.6
			C28.5,511.2,51.7,534.6,35.1,533.7"/>
		<path id="ink-layer-10" class="st1" d="M124.1,497.5c-5.7,1.3-11.3-2.4-14.8-6.7c-2.2-2.6-7.2-11.8-4.7-15.6
			c3.6-5.3,8.9,5.3,10.8,7.4C118.3,486,127.8,492.3,124.1,497.5"/>
		<path id="ink-layer-11" class="st1" d="M129.3,353.8c-4.4-2.1-8.6-4.6-10.4-9.5c-1.1-3.1-2.1-12.6,3-12.5
			C127.7,331.8,141.1,352.8,129.3,353.8"/>
		<path id="ink-layer-12" class="st1" d="M98.1,255.8c6-0.1,7.4,3.2,8.2,7.9c0.6,3.2,3.3,14.1,0.5,16.3c-4,3.2-10.5-4.1-11.8-7
			C92.2,267.1,95.9,261.3,98.1,255.8"/>
		<path id="ink-layer-13" class="st1" d="M200.4,581.9c2.9,1.3,9.5,4.2,7,8.8c-2.6,4.8-10.2,0.1-13-1.9c-1.2-0.9-8.7-6.6-8.4-8.5
			C186.7,576.2,197,581.5,200.4,581.9"/>
		<path id="ink-layer-14" class="st1" d="M9.3,285.3c2,5,4.2,22-6.2,12.8c-3.2-2.8-3.7-6.3-2.6-10.2C2.1,282.3,4.4,283.4,9.3,285.3"
			/>
		<path id="ink-layer-15" class="st1" d="M562.5,221.8c-2.3-4.7,3.4-7.8,6.4-10.8c2-2,10.4-12.8,13.1-12.2
			C587.7,200,565.3,219.7,562.5,221.8"/>
		<path id="ink-layer-16" class="st1" d="M98,563.8c5.4-0.9,6.7,5.2,10.2,7.8c1.5,1.1,6.7,2.1,5.6,4.5
			C111.1,582.5,97.7,568.1,98,563.8"/>
		<path id="ink-layer-17" class="st1" d="M144,421c3.7-1.6,14.6,6.9,11.4,10.5C150.8,436.9,144.2,423.9,144,421"/>
		<path id="ink-layer-18" class="st1" d="M222.9,542.7c-2.7,0.3-14.2-3.3-10-8.2C215.9,531.1,223.9,539.7,222.9,542.7"/>
		<path id="ink-layer-19" class="st1" d="M85,519.5c-2.7,1.1-12.5-1.1-9.4-5.4C78.5,510.1,85,516.1,85,519.5"/>
		<path id="ink-layer-20" class="st1" d="M165,537.8c2.9-0.4,5.6,1.6,6,4.5c0,0.1,0,0.2,0,0.3C167,543.2,165.8,542.2,165,537.8"/>
		<path id="ink-layer-21" class="st1" d="M283.1,20.8l-0.3,6L283.1,20.8"/>
		<path id="ink-layer-22" class="st1" d="M902.8,360.8c0.6,2.2-0.3,2.6-2.8,1.1C900.9,361.5,901.9,361.1,902.8,360.8"/>
		<path id="ink-layer-23" class="st1" d="M656,374.3c-1.7,1.3-3.3,1.5-5-0.1C652.6,374.2,654.3,374.3,656,374.3"/>
		<path id="ink-layer-24" class="st1" d="M618.5,203.8c0,1.7-0.1,3.3-0.1,5C618.5,207.1,618.5,205.4,618.5,203.8"/>
		<path id="ink-layer-25" class="st1" d="M705,49.5h-5C701.6,48.9,703.4,48.9,705,49.5"/>
		<path id="ink-layer-26" class="st1" d="M216,29.1c-1.7,0.1-3.3,0.2-5,0.3C212.6,29.3,214.3,29.2,216,29.1"/>
		<path id="ink-layer-27" class="st1" d="M257,29.4c-1.3-0.1-2.7-0.2-4-0.3C254.3,29.2,255.6,29.3,257,29.4"/>
		<path id="ink-layer-28" class="st1" d="M279,31c-1.3,0.7-2.7,0.7-4,0H279"/>
		<path id="ink-layer-29" class="st1" d="M160,33.8c-1.7,0.3-3.3,0.7-5,1C156.6,34.4,158.3,34.1,160,33.8"/>
		<path id="ink-layer-30" class="st1" d="M619.5,440.8c0,1-0.1,2-0.1,3C619.5,442.8,619.5,441.8,619.5,440.8"/>
		<path id="ink-layer-31" class="st1" d="M68.5,359.8c0,0.7,0,1.3,0.1,2C68.5,361.2,68.5,360.5,68.5,359.8"/>
		<path id="ink-layer-32" class="st1" d="M909,356.2h-5C905.5,355.1,907.6,355.1,909,356.2"/>
		<path id="ink-layer-33" class="st1" d="M567,349.1c-1.3-0.2-2.7-0.4-4-0.7C564.3,348.7,565.6,348.9,567,349.1"/>
		<path id="ink-layer-34" class="st1" d="M201,581.8c-1.7-0.3-3.3-0.7-5-1L201,581.8z"/>
		<path id="ink-layer-35" class="st1" d="M537.5,294.8c0-1-0.1-2-0.1-3C537.5,292.8,537.5,293.8,537.5,294.8"/>
		<path id="ink-layer-36" class="st1" d="M221,29.4c-1-0.1-2-0.2-3-0.4C219,29.2,220,29.3,221,29.4"/>
		<path id="ink-layer-37" class="st1" d="M385,4.7l-3-0.9L385,4.7"/>
		<path id="ink-layer-38" class="st1" d="M504,679.2c0.7,0,1.3,0.1,2,0.1C505.3,679.3,504.6,679.2,504,679.2"/>
		<path id="ink-layer-39" class="st1" d="M45,142.2c1,0,2,0.1,3,0.1C47,142.3,46,142.2,45,142.2"/>
		<path id="ink-layer-40" class="st1" d="M716,50.4c-1.7-0.1-3.3-0.2-5-0.4C712.6,50.2,714.3,50.3,716,50.4"/>
		<path id="ink-layer-41" class="st1" d="M661.4,251.8c0,1.7,0.1,3.3,0.1,5C661.5,255.1,661.5,253.4,661.4,251.8"/>
		<path id="ink-layer-42" class="st1" d="M539,609.8c-1.3,0-2.7,0-4-0.1C536.3,609.7,537.7,609.8,539,609.8"/>
		<path id="ink-layer-43" class="st1" d="M681,80c2-0.2,4-0.4,6-0.7C685.1,81,683,79.9,681,80"/>
		<path id="ink-layer-44" class="st1" d="M528,610.3c-1,0-2-0.1-3-0.1C526,610.2,527,610.3,528,610.3"/>
		<path id="ink-layer-45" class="st1" d="M493.4,627.8c0,1.7,0.1,3.3,0.2,5C493.5,631.1,493.5,629.4,493.4,627.8"/>
		<path id="ink-layer-46" class="st1" d="M646,141.4c1.3-0.1,2.7-0.2,4-0.4C648.8,141.9,647.3,141.4,646,141.4"/>
		<path id="ink-layer-47" class="st1" d="M209,407.4c1.3,0.2,2.7,0.5,4,0.7C211.6,407.9,210.3,407.6,209,407.4"/>
		<path id="ink-layer-48" class="st1" d="M417,144.3c1.7-1.4,3.3-1.3,5,0H417"/>
		<path id="ink-layer-49" class="st1" d="M354.4,194.8c0-0.7,0.1-1.3,0.1-2C354.5,193.5,354.5,194.2,354.4,194.8"/>
		<path id="ink-layer-50" class="st1" d="M204.3,384.8c2.2,0.7,6.6,3,9.2,2.7c2-0.2,3.7-2.7,5.7-2.7c5.3,0,4.3,6.2,1.8,9.4
			C214,403.1,198.4,393.5,204.3,384.8"/>
		<path id="ink-layer-51" class="st1" d="M226,352.8c7.2,1.9,3.6,17.8-2.5,18.9c-7.2,1.3-8.4-11.7-7-16.4c3.7,2.2,1.4,10,6.1,7.9
			C225.5,361.8,225.1,355.4,226,352.8"/>
	</g>
</g>
</svg>
