<?xml version="1.0" encoding="utf-8"?>
<!-- Generator: Adobe Illustrator 24.1.2, SVG Export Plug-In . SVG Version: 6.00 Build 0)  -->
<svg version="1.1" id="Layer_1" xmlns="http://www.w3.org/2000/svg" xmlns:xlink="http://www.w3.org/1999/xlink" x="0px" y="0px"
	 viewBox="0 0 900.3 734.4" style="enable-background:new 0 0 900.3 734.4;" xml:space="preserve">
<style type="text/css">
	.st0{fill-rule:evenodd;clip-rule:evenodd;fill:#DDC882;}
	.st1{fill-rule:evenodd;clip-rule:evenodd;fill:#41976D;}
</style>
<g id="Illustrations_groovy">
	<path id="Accent" class="st0" d="M486.9,165.8c-1.7-6.8-3.3-13.2-11.7-9.9c-6.4,2.5-9.5,6.5-10.1,13.3c-0.5,5.1,0.5,15.5,8.1,12.9
		C478.2,180.4,487,171.7,486.9,165.8 M453.3,192.7c1-6.8-4.5-22.7-13-15.3c-3,2.6-5.5,4.7-8.6,7c-3.7,2.7-3,4.3-3.2,9.1
		c-0.4,7.3,0.2,18.6,10.2,18.5C448.1,211.8,454.2,200.9,453.3,192.7 M430.2,162.8c-2.1-9.5-6-22.7-14.5-28.3
		c-11.2-7.4-15.2,14.7-15.2,21.2c0,9.4,0.3,23.1,11.2,27.5C422,187.5,428.7,169.5,430.2,162.8 M506.4,165.6
		c-10.6,4.2-17.8,14.1-20.3,25.1c-1.1,5.1-0.1,12.9-3.4,17c-4,4.9-10.2,0.7-14.8,3.7c-10.5,7,0.7,19.7,8.6,21.8
		c6.3,1.7,12.6,2.7,18.9,3.9c5.9,1.1,8.8,6.4,12.3,11.1c-4.9-0.8-9.7-2-14.6-2.8c-2.1-0.3-5.2-1.4-7.4-1.3c-2.7,0.2-4.4,2-6.9,2.5
		c-4.3,0.8-7.3-2-9,3.4c-1.2,4.2,0.6,8.6,4.3,10.8c-3.2,3.1-10.5,4-14.7,5.2c-6,1.9-12.2,3.1-17.8,6.2c0-9.8,0.1-17.6-4.7-26.6
		c-2.3-4.4-6.8-16.6-11.5-18.5c-1.4-0.5-3.5-0.2-5-0.7c-1.6-0.5-2.4-1.8-4.2-1.9c-3.2-0.1-6.6,3.6-8.5,6c-4.8,6.1-4.6,15.9-4.3,23.2
		c0.3,7.6,1.1,17.2,4.2,24.2c0.7,1.6,1.5,3.5,3,4.5c1.1,0.7,3.3,0.2,4.2,1c3.2,2.9-1.2,4.6-3.7,6.4c-6.3,4.6-11.8,9.1-16.4,15.3
		c-3.9,5.2-10,11.6-11,18.3c-4.3-5.8-7.3-12.4-10.6-18.7c-1.9-3.6-1.9-2.9,0.1-5.6c1.8-2.3,4-4.3,6.5-5.9c4.5-3.1,9.2-6.4,10.5-12.2
		c1-4.4-1.4-12.5-2.8-17c-1.8-5.7-6.3-10.1-12.2-6.7c-4.4,2.5-6.5,11.3-10.7,12.5c-4.8,1.4-4.1-10.2-4.6-13.4c-0.8-6-4-16.1-2-21.9
		c1.5-4.6,9-7,12.8-9.8c6-4.2,11.2-9.4,15.4-15.3c4.1-6,3.8-12.1,3-19.1c-0.4-4.1-1.1-15.2-7.9-12.8c-3.9,1.4-21.4,25.2-24.5,16.7
		c-0.9-2.4,1-8.4,1.3-11.1c0.2-2,0.2-11.6,1.6-12.9c0.5-0.5,6.7-1.3,8-2.2c3.1-2,5.7-4.6,7.6-7.8c6.4-10.7-0.9-27.4-12.9-30.1
		c-7.9-1.8-12.1,1-16.5,7.3c-4.3,6.1-12.6,3.5-19.7,5c-1.3-3.6,3.4-10.8,4.6-14.3c1.8-5.2,3.9-10.5,4.6-16c1.4-10.6-1-22.1-4.4-32.1
		c4,0.6,9.8,0.4,12.6,3.4s4,9.3,6.4,12.9c4.5,7,9.8,14.7,16,20.3c8.2,7.3,11.4,3.9,17.7-2.9c6.3-6.9,3-16.6,0.8-25
		c5.1-0.8,11.1,0.7,16.1,1.5c4.6,0.7,13.2,0.9,17,3.7c2.9,2.1,1.9,4.3,2.2,8.4c0.3,5.5,1.3,11,2.9,16.3c3.4,10.7,11.1,14.4,20.3,7.5
		c3.2,4.3,6.7,10,11.6,12.4s13.9,4.4,19.3,4.8c6.9,0.5,12.3-2.6,18-6c2.8-1.7,3.6-3.1,6-1.8c1.8,1,4.2,5.6,6,7.2
		c2.1,1.8,4.2,3.5,6.5,5.1c1,0.8,2.1,1.6,3.2,2.4c2.4,0.6,3.2,2,2.4,4.3c1.5,4.4,1.8,9.1,3.1,13.5c1.5,5.3,5.1,8.1,10,10.1
		c1.7,0.5,3.4,1,5,1.7c2.9,0.1,3.6,1.2,2,3.5c0,3.1-3.1,7.7-4.8,10.1c-1.6-4.5-8-9.6-12.9-7.7c-5.7,2.2-5.9,8.8-5.5,13.9
		c-3.5-1.8-6.7-4-9.7-6.6c-1.5-1.2-3.9-2.6-5-4.2c-1.9-2.8-1.7-1.3-0.4-5.1C499.3,179.8,510.2,169.6,506.4,165.6"/>
	<path id="Ink" class="st1" d="M765.2,640.6c-4.2,3.4-8.6,6.8-12.9,10c-10,7.4-19.3,15.5-28.7,23.5c-8.5,7.3-17.7,13.8-26.6,20.6
		c-8.5,6.5-16,14.2-23.9,21.3c5.2,3,10.8,7.5,17,6c5.1-1.2,11-5.6,15.4-8.4c10.2-6.6,18.6-15.8,27.1-24.4
		c8.3-8.4,16.3-16.6,24.1-25.3c8.4-9.3,15.5-19.7,21-30.9C773.2,630.2,768.2,638.2,765.2,640.6z M689.8,664.3
		c-5.9,1.9-12.1,2.8-18,4.6c-5.1,1.6-9.5,6.6-12.8,10.7c-2.1,2.7-3.5,5.9-5.4,8.9c-1.1,1.7-5.2,5.6-5.1,7.2c0.1,2.1,6.1,7.3,7.5,9
		c2.6,3,5.3,5.9,8.1,8.8c4.1-8.5,13.8-15.7,21-21.5c7.5-6.1,15.4-12.1,23.2-18.1c17.2-13.3,33.3-26.4,51.9-37.9
		C759,633.2,696.7,662.1,689.8,664.3z M661.1,659.3c-5.7,7-14.3,15-16.1,24.2c3.6-4.1,6.7-8.6,10.2-12.9c1.5-1.8,3.1-3.5,4.8-5.1
		C663,662.4,664,662.7,661.1,659.3z M515.2,270c-11.4,0.9-22.7,2.7-33.9,5.3l0,0c-2.7,0.6-5.4,1.2-8,1.8
		c-26.1,6.3-52.1,18.7-71,38.1l-0.6,0.7c-0.9,1.4-2.9,3.3-2.5,5.2c-1.3-0.8-1.7-1.5-1.6-2.1c-0.2,0.3-0.3,0.5-0.5,0.8
		c5.3,3.4,8.8,11.1,12.3,16.3c4,5.9,8.4,11.4,12.3,17.4c8.3,13,16.2,26.5,23.7,40.1c12.9,23.4,28.8,45.7,43,68.4s27.7,45,41.8,67.6
		c15.1,24.1,32.4,46.8,47.9,70.2c9.3,14,19.9,27.1,29.4,41c9,13.1,17.9,26.2,27,39.2c4.7-13.7,14.5-25.2,27.3-32.1
		c-17.7-25.2-34.7-50.7-50.3-77.2c-13.4-22.9-25.3-45.8-37.8-69c-12.3-22.8-24.4-45.7-36.9-68.5c-6.2-11.4-11.4-23.4-16.8-35.3
		c-5.7-12.7-8.1-26.8-14.2-39.2c-2.9-5.8-6.8-12.5-6.4-19.2c0.4-6.3,4.8-12.8,8.2-17.9c2-3,5.9-11.5,10-11.5
		c7.5-0.1-1.4,15.2-2.6,18.2c-5.4,13.8,2.1,25.8,7.8,38.2c5.5,12.1,9.9,24.8,15.7,36.8c2.5,5,5,9.9,7.2,15c0.8,1.8,2.9,7.5,4.9,8.1
		c1.1,0.3,6.7-3.3,7.6-3.8c4.4-2.8,10.3-7.6,12.9-12.1s1.5-12.1,0.4-16.9c-3.5-13.9-10.7-27.1-16.4-40.1
		c-6-13.7-12.3-27.5-17.5-41.5c-2.8-7.6-5.3-15.2-8.4-22.7c-1.7-4.2-3.6-8.5-5.5-12.6C521.3,271.5,521.1,269.6,515.2,270z
		 M314.7,435.1c-5.4,2.6-6.9,4-8,9.9c-1.2,6.1-0.6,12.2-1.3,18.4l0,0l-0.2,2.3c-0.9,8.8-2,17.6-2.5,26.3c-0.8,12.4,3.8,24,9.2,34.8
		c2.4,4.8,4.8,9.4,8.4,13.4c2.3,2.4,4.7,4.6,7.3,6.6c3.2,2.6,3.7,4.3,5.8,0.7c2.6-4.4,0.5-11.6-0.2-16.3c-1.2-7.3-1.7-14.8-1.7-22.2
		c0.3-3.4,0.5-6.9,0.7-10.3l0,0c0.5-8.4,0.9-16.8,2.3-25.1c0.5-3,1.1-6,1.8-8.9c0.7-2.7,3.4-7.6,3.2-10.2c-0.2-2.7-4.4-7.6-5.1-12
		c-0.4-2.6-0.6-5.2-0.6-7.8c-0.2-3.7,0.7-4.6-2.5-5.6C327.3,427.7,318,433.5,314.7,435.1L314.7,435.1z M258.4,406
		c-1.5,4.4-7.4,8.8-10.5,12.1c-8.4,9-14.9,18.2-21.4,28.5c-10.5,16.6-20.1,35.8-24.6,55.2c-11.2,3.1-7.3-20-5.8-24.5
		c3.7-11,8.3-21.6,13.9-31.8c5.5-9.7,12.2-18.8,19.8-27c3-3.2,6.6-7.1,9.9-10c2.9-2.6,9.5-9,13.1-9.6
		C257.3,398.3,259.9,401.5,258.4,406L258.4,406z M305.4,463.4L305.4,463.4z M659.4,338.3c6.5,12.1,9.7,27.2,12.1,40.7
		c2.1,12.2,3.8,25.6,3.5,38c0.3,2.1,0.4,4.3,0.5,6.4v1.9c0-1.6,0.1-3.2,0.1-4.7c0.7,1.5,0.6,3.2-0.1,4.7c0,3.1-0.2,6.3-0.3,9.4
		c-0.1,4.5,0.9,13.8-2.2,17.7c-4.7,5.9-6.1-4.7-6.4-7.6c-0.7-7.3-0.8-14.7-1.4-22c-2-25.6-5.3-53.9-15.2-77.8
		c-0.9-2.3-2.4-7.1-4.2-8.7c-1.3-1.1-2.2,0.1-3.7-1.9c-1.5-2.1-3.7-14.1-1.1-16.4C646.5,313.1,657.1,334.1,659.4,338.3z M210.9,398
		c7.8,5.5-20.9,18.8-24.8,21.2c-6.9,4.4-13.8,8.6-20.5,13.3c-7.1,4.9-13.8,10.7-21.1,15.1c-9.1-10.7,16.6-26.4,24-30.4
		c7.6-4.1,14.8-8.7,22.6-12.2C194.9,403.4,206.9,395.2,210.9,398L210.9,398z M434,402c-1.5,0.2-4.5,2.1-6,2.6
		c-14.7,5.2-31.7,7.6-45.2,15c-9.2,0.1-18.8,5.6-27.6,8.1c-3.5,1-10.5,2-13.4,4c-3.3,2.2-1.7,11.5-1.7,15.5c5.7-5.4,12.4-4.3,20-4.6
		c10.6-0.5,21.2-1.5,31.8-2.1c11.2-0.6,22.2-2.4,33.4-2.3c11.1,0,22-2.3,32.9-0.1c-1.9-7.5-8.8-15.5-12.9-21.9
		c-2.6-3.9-4.5-9-7.4-12.6C435.6,400.7,437.1,401.5,434,402L434,402z M359.4,442.6l-3.8,0.1C356.8,441.6,358.1,441.9,359.4,442.6
		L359.4,442.6z M694.2,351.8c5.4,15.4,10.4,30.4,10.7,46.9c0.1,5.7,0.3,14.7-2.1,20c-4,8.8-7.7,1-7.5-5c-1.3-15.1-3.1-30.4-6.4-45.2
		c-1.5-6.9-4.9-15.6-3.7-22.8C687,335.2,693,348.4,694.2,351.8z M695.2,416.1L695.2,416.1z M729,380.7c1.8,4.6,4.8,15.6,1.9,20.1
		c-3.9,6-6.8-0.7-7.9-5.1c-1.8-6.8-1.7-13.9-4.2-20.6C722.7,366.8,726.8,374.9,729,380.7z M177.2,374.3c0,4.8-7.4,6.3-11.4,8.3
		c-2.9,1.5-6.4,5.8-8.3,2.3C154.4,379.2,173.3,374.3,177.2,374.3L177.2,374.3z M331.1,80.2c3.4,10,5.8,21.5,4.4,32.1
		c-0.7,5.5-2.8,10.8-4.6,16c-1.1,3.2-5.9,10.8-4.6,14.3c5.2-1.1,13.9,0.7,18.1-2.2c4.8-3.3,4.4-10.3,12-10.7
		c11.7-0.7,21.1,9.7,21.9,21.3c0.4,6-4,12.4-8.5,15.9c-2.4,1.9-4.7,2.5-7.4,3.7c-1.8,0.8-2.3,0.8-2.4,0.7l0,0
		c0.1,0.1,0.2,0.6-0.6,2.3c-1,2.2-0.7,5.7-1,8c-0.4,3.4-1.8,7.7-1.3,11.1c0.5,3.7,0.3,4,4.3,2.7c4.6-1.5,10.4-7.8,13.8-11.2
		c3.4-3.3,6.7-10.5,11.5-4.7c3.7,4.4,3.7,15.4,3.1,20.8c-1.3,12.6-15.7,22.9-25.7,28.9c-7.1,4.2-6.1,7-5.6,15
		c0.4,6.5,1.4,13,2.2,19.4c1,7.7,3.5,7.9,7.3,2.1c2.9-4.4,7.7-11.6,13.9-9.1s5.7,10.6,7.1,15.8c1.9,7.4,1.3,12.9-4.9,18.3
		c-2.8,2.4-12,6.4-12.8,10.4c-0.4,1.9,4.1,8,5.1,10c2.1,4.4,4.6,8.5,7.4,12.5c1-6.6,6.7-12.1,10.3-17.3c4.3-6.3,9.6-10.8,15.8-15.3
		c2.3-1.7,8-3.9,5.3-6.8c-2.3-2.5-4.8-0.7-7.1-4.7c-3.9-6.8-4.4-17.7-4.7-25.4c-0.3-6.8-0.5-16.4,3.5-22.3c4.9-7.2,9.9-7.5,17.3-4.4
		c5.8,2.4,8.8,11.7,11.9,17.3c5.2,9.4,5.3,17.4,5.3,27.8c5.6-3.2,11.7-4.4,17.8-6.2c4.2-1.3,11.5-2.1,14.7-5.2
		c-3.4-2-5.2-5.9-4.5-9.8c1.2-6.3,4.4-3.6,9.2-4.4c2.2-0.4,3.7-2,5.9-2.3s4.6,0.6,6.8,0.9c5.5,0.8,10.8,2.1,16.2,3
		c-3-4-6.1-9.5-10.9-11c-5.8-1.8-12.9-2.1-19-3.6c-7.9-2-21.5-14.5-9.9-22.2c4.4-2.9,10.1,0.8,14.2-3.1c3.9-3.7,2.8-11.4,3.8-16.4
		c2.4-11.5,9.3-21.9,20.5-26.3c3.8,4.1-7.1,14.2-8.6,18.4c-0.9,2.5-1.6,2.2-0.6,4.3c0.6,1.4,3.7,3.1,5.1,4.1l1.1,0.9
		c2.9,2.5,6.2,4.7,9.6,6.5c-0.4-5.1-0.2-11.7,5.5-13.9c4.9-1.9,11.2,3.1,12.9,7.7c1.7-2.4,4.8-7.1,4.8-10.1c1.6-2.3,0.9-3.5-2-3.5
		c-1.2-0.5-2.5-0.9-3.7-1.3c-5.4-2.1-9.5-4.5-11.2-10.4c-1.3-4.4-1.6-9.1-3.1-13.5c0.8-2.3,0-3.7-2.4-4.3c-0.8-0.5-1.5-1.1-2.3-1.6
		c-2.5-1.8-5.1-3.8-7.4-5.8c-1.8-1.6-3.5-5-5.4-6.2c-0.4-0.9-1-1.6-1.7-2.3c-1.6,1-3.3,2-4.9,3c-5.7,3.5-11.1,6.6-18,6
		c-6.3-0.6-12.5-2.1-18.4-4.3c-5.5-2.2-9.2-8.4-12.6-12.9c-9.2,6.9-16.9,3.2-20.3-7.5c-1.5-4.8-2.4-9.8-2.8-14.8
		c-0.4-4.1,0.9-7.7-2.3-9.9c-3.9-2.8-12.4-2.9-17-3.7c-5-0.8-11-2.3-16.1-1.5c2.2,8.5,5.6,18.2-0.8,25c-6.3,6.8-9.5,10.2-17.7,2.9
		c-6.3-5.6-11.4-13.3-16-20.3c-2.4-3.7-3.5-8.5-5.9-12C341.4,80.4,335.9,80.9,331.1,80.2L331.1,80.2z M40.6,284.4L40.6,284.4
		L40.6,284.4z M323.2,81.9c-3.1,0.2-6.1,0.7-9.1,1.3c-5.6,1.1-11.2,2-17.1,3c-13.2,2.1-26.3,4.8-39.4,7.2c-12,2.2-25.4,5.1-36.8,9.7
		c-12.5,5-24.6,9.9-36.5,16.2c-11.9,6.4-22.2,14.7-33.6,21.7c-21.4,13.2-43,26.7-64,40.7c-13.3,8.9-27.6,16.6-40.5,26
		c-6.7,4.8-13.2,9.9-19.5,15.1c-4.7,3.9-13.2,9.2-14.4,15.6c6.3,0,14.7-10.9,19.8-14.4c3.7-2.5,7.9-4.5,11.7-6.8
		c2.2-1.3,9.3-8.1,11.7-8.1c3.5-0.1,4,4.9,3.1,7.2c-1.1,2.9-4.4,5.3-6.6,7.4c-7.2,6.8-13.1,15.8-17.9,24.4
		c8.8-3.2,16.1-13.8,22.3-20.6c3.3-3.6,20.2-19.1,19-4.4c-0.4,5.4-4.4,9.6-7.1,14.1c-3,4.9-6,9.8-8.6,14.8
		c-5.2,10.2-9.4,20.9-12.4,31.9c5.5-2.2,6.9-8.2,9.4-12.9c2.6-4.8,5.6-9.4,8.5-14c6.2-9.8,11.5-20,18.1-29.6
		c2.6-3.8,14.2-23.7,18.8-20.9c3.1,1.9,4.1,10.8,5,13.9c1.5,4.9,3.8,10.1,8.7,12.3c0.2-10.1-0.1-20.1,0-30.2
		c0.1-7.9,4.4-10.2,9.8-15.7c12.5-12.8,28.5-21.1,43.4-30.7c6.6-4.3,12.7-9.9,20-13.5c8.2-4,16.2-8.7,24.2-13.2
		c16.7-9.3,35.9-13.3,54.9-11.3l0.8,0.1l0,0c18.4-2.6,39.1,1,56.1,8.2c3.7-12.8,5.1-26.3,2.2-39.5C326.7,83,326.8,81.9,323.2,81.9
		L323.2,81.9z M490.4,273.9c-0.8,0-1.6,0.1-2.4,0.1C488.8,274,489.6,274,490.4,273.9L490.4,273.9z M860,61.1
		C854.6,66,847.6,70,841.7,74c-5.4,3.7-10.5,7.9-15.9,11.7c-14,9.7-26.7,21.1-40.2,31.4c-25.4,19.5-51.9,37-80.9,50.6
		c-13.7,6.4-27.8,12-41.9,17.4c-13.7,5.3-26.7,12.6-41.8,12.7c-7.8,0-16,0.2-23.7-0.9c-8.3-1.3-17-6.3-24.6-9.8
		c-3.6-1.6-7.2-3.2-10.6-5.1c-3.2-1.8-7.4-6.3-10.7-6.9c-7.5-1.3-8.3,14.2-10.3,19.6c-0.7,1.8-2.9,5-2.9,6.8c0,3.4-0.6,1.7,2.5,3.8
		c3.3,2.4,7.8,4.3,11.5,6.2c6.9,3.5,14.3,6.7,21.4,9.6c7.4,3.2,15.2,5.2,23.2,6.1c3.2,0.3,6.2,0.5,9.3,0.5h1c1.4-0.6,2.9-1,4.3,0
		h-1.1c2.5,0,5,0,7.6,0.1c-1.3,0-2.6-0.1-3.9-0.1c1.2-0.7,2.7-0.7,3.9,0.1c19.3-2.1,36.2-13.2,54.3-19.1c18.4-6,37.6-14.7,55.1-23.7
		c16.6-8.6,33.3-17.4,50.4-25.3c9.8-4.5,20.2-13.9,31.4-10.4c5.2,1.6,9.8,4.8,15.1,5.9c6.2,1.3,12.1,1.5,18.2,3.3
		c-0.4-2.8-8.4-7.1-10.3-10c-1.2-2-1.4-4.2-2.4-6.1c-0.9-1.8-2.4-1.9-2.8-4c-1.4-8,11.8-16.5,16.8-21c16-14.3,34.7-25.7,50.6-40.4
		c-9.6,0-21.1,12.2-28.3,17.8c-4.8,3.8-9.6,7.5-14.7,10.9c-1.4,0.9-7.8,5.9-9.6,5.3c-5-1.6-0.2-10.2,1.6-12.2
		c3.5-3.8,8.3-6.9,12.3-10.1c8.5-6.7,16.4-14.2,23.5-22.3c-7.1,0.4-17,12.2-22,16.9c-5.5,5.1-12.8,12-20,14.7
		c-3.7,1.4-5.5,1-5.8-3.5c-0.3-5.1,3.7-7.8,7.1-10.8C845.2,77.9,856.2,69.5,860,61.1L860,61.1z M453.3,192.7
		c1,8.4-5.3,18.9-14.6,19.2c-10,0.4-10.6-11.3-10.2-18.5c0.2-3.8-0.3-6.1,2.4-8.7c1.1-1.1,3.7-1.6,5-2.6c1.7-1.4,2.8-3.3,4.4-4.8
		C448.8,170.1,454.3,185.9,453.3,192.7L453.3,192.7z M415.7,134.5c3.2,2,6.7,7.1,8.3,10.5c2.8,5.7,4.9,11.7,6.3,17.9
		c-1.5,6.8-8.1,24.7-18.5,20.4c-10.9-4.4-11.1-18.2-11.2-27.5C400.5,148.9,404.2,127.4,415.7,134.5L415.7,134.5z M486.9,165.8
		c0.2,6.2-7.8,12.9-12.8,15.6c-8,4.3-9.6-6.4-9.1-12.2c0.6-6.5,3.2-10,9.1-12.8C483,152.3,485,158.3,486.9,165.8L486.9,165.8z
		 M533.6,151L533.6,151z M469.2,67c-3,0.9-7.4,6.6-9.7,8.9c-1.4,1.4-3.8,5.7-5.8,6c-3,0.4-2.7-1-4.7-3.5c-7.6-9.1-15.7-9.1-20,2
		c2.5,1.2,5.3,1.6,8,1.4c0.9,0,4.6-1.1,5.3-0.7c4,2.6-1.8,4.9-2.6,6.2c-0.5,0.8-0.9,1.7-1.1,2.7v0.4l0,0v-0.1l0,0v0.1
		c-0.5,1.9-0.9,3.3-4.3,4.4s-6.3,0.1-9.8-0.9c0.4,6.7,0.4,18.8,5.1,24.3l0.3,0.3c1.3,0.6,2.7,1.2,4,1.8h-0.5c2.3,0,5-1,6.6-1.3
		c-0.7-3.4-4.5-14.7-2.8-17.1c3.3-4.6,4.7,2.3,5.5,5.3c1.9,7.3,6.1,16.9,12.7,21.4c-0.1-0.1-0.1-0.2-0.2-0.3c1.6,0.3,3.2,0.3,4,2.1
		c-0.5-0.2-1-0.3-1.5-0.4l0,0c6.3,2.9,18,7.8,24.2,4.5c8.7-4.5,15.7-12,23-18.3c-5-2.5-5.7-6.4-1.8-10.4c8.3,8.9,13.4-10.2,16.1-16
		c-5.1-0.5-9.7,2.6-14.9,1.6c-4.3-0.9-9.4-2.4-13-4.7c-4.9-3.2-9.2-7.8-13.3-11.8C475.3,72.3,471.9,66.1,469.2,67L469.2,67z
		 M315.8,130.8c0.2,1,0.5,1.9,0.7,2.9C317.9,131,317.9,131,315.8,130.8L315.8,130.8z M476.6,129.2c-2.1-0.2-10.3-1.7-5-4.1
		C474.3,123.9,476.9,126.7,476.6,129.2L476.6,129.2z M501.3,99.6c1.1,2.7-3.4,7.5-4.7,9.9c-2,3.6-5.5,18.9-11.2,17.3
		c-6.3,0-5.2-6-1.8-8.9c1.2-1,2.5-1.1,3.7-2.3c1-1.1,1.7-3.4,2.4-4.7c1.7-3.4,3.2-7.2,5.9-10C497.7,98.7,499.9,96.3,501.3,99.6
		L501.3,99.6z M267.1,118l0.7,0.1l1.3,0.1l-1.1-0.1L267.1,118z M265.7,117.8l0.8,0.1h0.4l-0.6-0.1H265.7z M471.1,95.9
		c3,0.4,1.1,1.8,2.6,3.1c1,0.9,1.2,1.3,1.1,1.5h0.1c0.4,0,1.2,0,2.5,0.1c2.9,0.3,11.8-2.3,6.1,3.4c-1.2,1.2-8.6,4.7-10.3,3.9
		C469.6,106.2,471.1,99,471.1,95.9L471.1,95.9z M474.8,100.6C474.1,100.6,474.6,100.8,474.8,100.6z M232.6,99.7
		c-0.8,0-1.6,0-2.4,0.1C231,99.8,231.8,99.8,232.6,99.7L232.6,99.7z M438.5,90.6L438.5,90.6z M356.8,72.9L356.8,72.9z M348.4,72.5
		L348.4,72.5c1.6-0.7,3.5-0.6,5.1,0.1h-3.2c3.7,0.2,7.4,0.6,11.1,1.2c16.1,2.5,34.8,3.9,50.1,10.3c-0.1-0.1-0.1-0.2-0.2-0.2
		c1.2-0.3,2.5,0.2,3.2,1.3c-0.1,0-0.3,0.1-0.4,0.1c1.7,0.8,3.4,1.7,5.1,2.7c2.5-5.3-2.1-3.7-6.4-5.7c-4.5-2.1-8.6-5-12-8.7
		c-3-3.2-5.6-7.2-4.6-11.9c0.5-2.5,3.3-3.4,3.8-5.2c0.2-0.6-1.5-2.7-1.6-3.5c-0.2-1.9-0.1-3.9,0.3-5.8c2.5-10.5,1.4-24,13.3-28.5
		c2.6-1,2.5,0.1,4.4-1.9s2.5-5.2,4.7-7.3c4-4.2,9.1-7.1,14.7-8.5c5.9-1.3,10.9,0.7,16.5,0.5c6.1-0.2,10.7-2.6,17.2-0.9
		c4.9,1.3,5.3,3.3,9,5.5c3.8,2.3,11.1,0.4,15.9,1.9c2.5,0.8,4.1,2.2,6.3,3.6c1.3,0.8,1.2,1.3,2.5,1.8c0.7,0.3,2.3-0.1,3.2,0.1
		c5.9,1.3,6.4,8.2,10.2,9.6c2.9,1,4.2-1,7.4,1.2c1.9,1.5,3.5,3.4,4.5,5.6c0.5,1,0.9,4.2,1.3,4.7c1.3,1.5,0.8,0.7,2,1.5
		c2.6,1.8,5.6,1.7,8.4,4.7c3.8,4,8.3,7.2,9.2,13c0.2,0.9,0.2,1.9,0.1,2.8v0.6c-0.1,1.7-0.5,3.3-0.6,5.1c-0.2,2-0.4,2.1,0,3.5
		c0.3,1,2,2.3,2.4,3.8c3.2,11.4-15.3,24.3-24.8,17.9c-3.9,8.2-6.7,16.9-10.4,25.1c-2,4.5-12.8,15.1-12,18.3c0.6,2.7,6.8,4.4,8.9,5.7
		c3.9,2.3,7.6,5.1,11.4,7.7c2.7,1.9,5.3,3.8,7.9,5.7l1.6,1.2l0.2,0.1c1.6,0.5,2.9,1.5,3.9,2.8c2.2,1.5,4.4,2.8,6.7,4.1
		c3.6,1.9,4.5,2.3,6.1,6.1c1.6,3.9-0.4,2.5,3,5c6.6,4.8,16.7,6.9,24.3,10.2c16.7,7.3,33,11.1,51.3,7.9c16.5-2.8,31.8-10.7,47.2-16.9
		c15.3-6,30.3-12.9,44.9-20.5c13.7-7.3,27.2-15.1,39.8-24.3c7.1-5.1,14.5-9.7,21.3-15.2c6.7-5.4,12.9-11.4,19.7-16.6
		c13.3-10.3,27.3-20.1,41.3-29.4c4-2.6,7.9-5.4,11.8-8.2c2.4-1.7,7.1-6.5,10.2-5.9c9.7,1.9,0,14.4-1.7,18.1
		c4.8-2.6,8.7-6.3,13.7-8.7c2.6-1.2,9.6-5.5,12.3-3.7c6.3,4.2-8.6,18.2-11,21.4c4-2.3,17.5-11.3,20.8-3.9c3.4,7.8-9,16.9-13.6,21.3
		c-13.4,12.7-28.9,22.8-42.5,35.1c-1.9,1.7-8,5.5-7.6,8.5c0.4,2.9,6.1,6.2,8.1,8.1c4,3.7,16.6,15.9,8.6,22.1
		c-2.8,2.2-10.9,0.4-14.3,0c-5-0.5-9.9-0.9-14.8-1.8c-7.3-1.2-14.4-6.9-21.7-7.1c-8.2-0.2-17,7-24,10.5c-8.3,4.1-16.2,8.6-24.4,12.8
		c-15.7,8-30.7,16.9-46.9,24.1c-17.8,7.9-36.8,13-54.3,21.4c-17.8,8.5-35.1,11.2-54.6,10.6c-19.1-0.6-39.5-13.2-54.6-24.1
		c-0.9-0.6-1.7-1.3-2.6-1.9c-1.6-2.5-3-2.5-4.2-0.2c-2.5,0.4-3.5,0.8-6.4,0.6c-4.8-0.3-7.2-1.4-11.5-3c-9.9-3.7-17.4-6.5-24.4-15.1
		c-4.6,12,7,24.6,13.2,33.9c3.4,5.2,7.3,10.1,10.3,15.5c2.4,4.4,3.3,11.3,7.8,13.3c2.7,1.2,4.4-0.8,6.3,2c1.2,1.8-0.1,3.9-0.4,5.4
		c-0.6,3.9-2.5-1.6-1.1,4.1c0.4,1.8,3,5.2,3.8,6.9c5.7,11.3,10.4,23.1,15.3,34.7s9.7,23.1,14.5,34.7c2.1,5,5,9.6,6.9,14.7
		c2.4,6.2,3.9,12.6,6.2,18.9c3.7,10.5,4.1,21.8,1.3,32.5c-2.9,9.8-15.3,19.9-25.3,19.2c4.6,9.2,9.8,17.5,14.6,26.5
		c4.5,8.5,7.6,17.5,12.3,25.7c5.3,9.3,9.9,19.2,15.3,28.3c4.5,7.7,7.3,16.5,11.5,24.3c9.6,17.8,18.9,36.4,29.2,54.1
		c6,10.3,11.4,20.9,17.5,31.1c3.3,5.5,6.6,10.9,9.9,16.4c1.9,3.1,4.1,10.1,7.7,11.6c-1,1.1-4.3,3.6-4.5,5.1c-0.3,4.2,3.9,3,6.3,2.5
		c6-1.5,11.8-3,17.7-5.1c11.2-4,21.8-9.7,33.1-13.3c11.7-3.7,22.8-10.2,34.9-13c5.5-1.3,23.7-9,25.3-2.5c0.3,1.2-0.5,4.2-0.5,5.7
		c0,2.6,0.7,5,0.3,7.7c-0.7,5.3-3.6,10.5-6.4,14.9c-6.7,10.5-14.3,20.8-23.2,29.6c-15.2,15.1-29,35.2-47.8,46
		c-3.7,2.1-7.3,5.9-11.5,7c-4.7,1.2-8.7-0.3-12.8-0.5c-2.3-0.1-2.4,1.2-5.2,0.1c-2.3-0.9-5.2-3.6-7.1-5.1
		c-4.7-3.7-8.7-8.4-12.5-12.9c-3.4-4-7.1-11.7-11.7-14.2c-2.6-1.4-2.4,0.9-4.7-2.3c-1.3-1.8-1.4-3.5-3-5.3c-1.7-1.9-2.7-2.1-3.9-4.4
		c-0.8-1.6-0.8-3.1-1.8-4.7c-3.3-5.4-8.4-10-12-15.4c-5.4-8-12.2-14.9-17.9-22.6c-6.7-9.3-14.3-18.5-21.6-27.3
		c-14.1-17-27.1-35.7-40.4-53.6c-14.5-19.6-27.8-40-40-61.1c-6.5-11.3-14.3-22.1-21-33.3c-6.6-10.9-12.7-22.3-20.5-32.4
		c-1.5,1.2,1,5.5-0.8,7.2c-1.9,1.8-10.9,1.9-13.4,2.3c-8.4,1.4-17.3,3.1-25.8,3.4c-17.5,0.7-34.8,4.2-52.5,5
		c-4,0.2-7.1-0.5-10.9-1.2c-5.7-1.2-6.8-1.9-8,3.7c-1.8,8.6-3.9,17.7-4.7,26.4c-0.8,9-1,17.9-1.1,26.9c-0.1,4.3-0.2,8.6-0.2,12.9
		c0,6.2,1.7,12.3,1.4,18.5c-0.4,7.9-1.8,14.8-10,17c-4.6,1.2-4.7,0.6-7.9-1.9c-3.4-2.6-7.9-5-10.7-8.1c-11-12.3-18.6-27.3-22.2-43.4
		c-3.6-17.6,1.3-36.6,3-54.1c0.7-7.4,1-19.2,6.2-25c5.5-6.2,16.8-6,24.3-6.1c1.4,0,2.8-0.1,4.1-0.5h-0.8l1.4-0.2
		c2.1-0.9,4.2-2,6.1-3.2c3.5-1.9,8.6-2.9,12.4-4.4c10.3-4,21.2-6,31.6-9.5c8.5-2.9,16.9-4.5,25.4-6.6c6.3-1.5,12.8-1.8,19.1-2.9
		c-0.7-0.1-1.4-0.2-2.1-0.1c1.5-1,3.1-0.4,4.7-0.4c1.5-0.3,3-0.7,4.5-1.2c-9.9-17.9-18.9-36.2-29.8-53.6c-2.4,4.4-6.4,4.4-11.2,3
		c-2.7-0.8-3.8-3.5-6.2-4.4c-1.6-0.6-2.5,1.2-4.1-0.1c-0.9-0.7-1.5-3.3-2.1-5.5c-9.1-9.2-13.4-19.6-17.7-31.8
		c3.1,5.8,5.9,11.7,9.1,17.4c0.8,1.3,1.7,2.6,2.6,3.9l-0.3-0.4c-1.3-2-2.6-4-3.7-6.1c-10-18.7-15.3-37.1-18.5-58
		c-2.9-18.7-3.5-38.4-2.9-57.3l0,0v-0.1l0,0c0-1.3,0.1-2.6,0.2-3.9l0,0c0.5-8,1.7-16,3.6-23.8c0.7-3.1,2.3-7.7,2.3-10.8
		c0-1.9-0.5-11.1-1.1-11.6c-2.4-2-11.6-0.4-14.2-0.2c-4.7,0.5-9.4,1.2-14.2,1.7c-1,0.1-1.9,0.2-2.9,0.3c-1.5-0.6-3.3,0.1-4,1.6
		c-2.5,0.4,0.7,2.5-2.8,0.5c-4-2.3-3.9-11.1-3.9-15c0-1.5,1.1-7.8,0.1-8.9c-0.8-0.9-6.2-0.5-7.6-0.6c-5.2-0.4-10.4-1-15.6-1.3
		c-10.3-0.4-20.7-0.2-30.9-0.1c-18.2,0.1-35.5,8.4-50.7,17.7c-7,4.3-14.8,7.3-21.7,11.8c-6.8,4.3-12.8,9.7-19.5,14.2
		c-9.4,6.4-19.2,11.7-27.9,19c-4.2,3.5-9.7,7-12.7,11.6c-3.1,4.6-1,9.9-1.1,15.2c-0.1,5.8,0.2,11.9-0.8,17.6c-0.3,2-0.6,5.7-2.5,7
		c-2.8,2-2.1,0.5-4.4-0.8c-10.2-5.7-12-16.2-15-26.3c-16.9,22.7-28.1,48.9-44.1,72.3c-2.4,3.6-6.7,11.2-11.8,7.5
		c-3-2.2-3.6-6.3-3.3-10.4V284c0.3-2.4,0.8-4.8,1.4-7.2c1.9-7.4,3.6-15,7.1-21.9c1.8-3.4,3.8-6.7,5.6-10.1c0.9-1.8,3.7-5.2,3.6-7.2
		c-0.8,1.1-1.7,2.2-2.5,3.2c-4,1.9-7,8.2-10.3,11.3c-3,2.8-6.4,5.6-9.6,8.3c-5.9,4.9-11.2,10.4-16.1,16.3c-3.1,3.6-6.9,7.1-9.6,0.4
		c-2.1-5.1,1.2-9.7,3.6-14.1c2.9-5.6,6.4-10.9,10.4-15.9c3.5-4.2,8.4-8.8,9.8-14.1c-7,4.8-13.3,10.5-20.8,14.6c-6,3.2-15.7,3-12-6.6
		c2.7-7,11-15.5,16.5-20.6c5.7-5.3,12.2-10.2,18.4-15.1c14.2-11.3,30.1-20.6,45.1-30.9c13.7-9.4,27.7-18.2,41.3-27.4
		c30.5-20.6,60.5-43.7,95.9-55.5c16.6-5.5,33.6-9.8,50.8-12.7c8.8-1.5,18.2-3.7,27.1-4.1c3.3-0.1,6.4,0.5,9.7,0.3
		c3.4-0.2,7.5,0.7,10.9-0.1c3.5-0.8,6.6-4.5,10-4.3c1.1,0.1,2,1.1,3.1,1.3h0.3c1.4-0.2,2.9-1.3,4.2-0.1l0,0
		c4.8,0.1,9.6,0.2,14.4,0.4L348.4,72.5z"/>
</g>
</svg>
