<svg data-name="Ebene 1" xmlns="http://www.w3.org/2000/svg" viewBox="0 0 55 56"><path d="M27.5 56A27.75 27.75 0 0055 28 27.75 27.75 0 0027.5 0 27.75 27.75 0 000 28a27.75 27.75 0 0027.5 28z" fill-rule="evenodd" fill="#4e215a"/><path d="M41.32 20.27v1.78a5.28 5.28 0 01-4.46 4.44.41.41 0 00-.34.5A4.15 4.15 0 0135 31.63c-2.91 2.42-5.87 2-8.36-1.33l-.84-1-.8-1v-.06c-.73-.89-1.95-2.38-3.78-.71-1.44 1.3-.1 3 .43 3.66l3.45 4.17a.62.62 0 01-.09.86l-7.47 6.2a.54.54 0 01-.77-.07L13.92 39a5.44 5.44 0 01.94-8 5.13 5.13 0 012.31-.95.42.42 0 00.36-.51A4.12 4.12 0 0119 25c2.91-2.42 5.86-2 8.35 1.32l.84 1 .8 1 .07.08c.72.88 1.95 2.38 3.78.71 1.43-1.3.1-3.05-.43-3.66L29 21.2a.59.59 0 01.07-.83l7.47-6.2a.57.57 0 01.81.08l2.79 3.38a5.41 5.41 0 011.18 2.64zm-29-6.58h-.14v.14zm-.14 29l.14.14h-.14zM36.69 18.3L33.44 21l1 1.24a2.16 2.16 0 003 .28 2.12 2.12 0 00.24-3zM16.58 34.06a2.12 2.12 0 00-.24 3l1 1.23 3.23-2.68-1-1.23a2.15 2.15 0 00-2.99-.32z" fill="#fff" fill-rule="evenodd"/></svg>