<?xml version="1.0" encoding="utf-8"?>
<!-- Generator: Adobe Illustrator 24.1.2, SVG Export Plug-In . SVG Version: 6.00 Build 0)  -->
<svg version="1.1" id="Ebene_1" xmlns="http://www.w3.org/2000/svg" xmlns:xlink="http://www.w3.org/1999/xlink" x="0px" y="0px"
	 viewBox="0 0 55 56" style="enable-background:new 0 0 55 56;" xml:space="preserve">
<style type="text/css">
	.st0{fill-rule:evenodd;clip-rule:evenodd;fill:#41976D;}
	.st1{fill-rule:evenodd;clip-rule:evenodd;fill:#FFFFFF;}
</style>
<path class="st0" d="M27.7,55.6c15.1-0.1,27.2-12.5,27-27.5c0,0,0,0,0,0c0.1-15.1-12-27.4-27-27.5c0,0,0,0,0,0
	C12.6,0.6,0.5,13,0.7,28c0,0,0,0,0,0C0.5,43.1,12.6,55.4,27.7,55.6C27.7,55.6,27.7,55.6,27.7,55.6z"/>
<path class="st1" d="M42.1,20v1.8c-0.3,2.3-2.2,4.1-4.5,4.4c-0.2,0-0.4,0.2-0.3,0.5c0,0,0,0,0,0c0.6,1.7-0.1,3.6-1.5,4.6
	c-2.9,2.4-5.9,2-8.4-1.3l-0.8-1l-0.8-1V28c-0.7-0.9-2-2.4-3.8-0.7c-1.4,1.3-0.1,3,0.4,3.7l3.5,4.2c0.2,0.3,0.2,0.6-0.1,0.9l-7.5,6.2
	c-0.2,0.2-0.6,0.2-0.8-0.1c0,0,0,0,0,0l-2.8-3.4c-2-2.3-1.7-5.7,0.5-7.7c0.1-0.1,0.3-0.2,0.4-0.3c0.7-0.5,1.5-0.8,2.3-1
	c0.2,0,0.4-0.2,0.4-0.5c0,0,0,0,0,0c-0.5-1.7,0.1-3.5,1.5-4.5c2.9-2.4,5.9-2,8.4,1.3l0.8,1l0.8,1l0.1,0.1c0.7,0.9,2,2.4,3.8,0.7
	c1.4-1.3,0.1-3-0.4-3.7l-3.4-4.2c-0.2-0.2-0.2-0.6,0.1-0.8l7.5-6.2c0.2-0.2,0.6-0.2,0.8,0.1c0,0,0,0,0,0l2.8,3.4
	C41.5,18.1,41.9,19,42.1,20z M13.1,13.4h-0.1v0.1L13.1,13.4z M12.9,42.4l0.1,0.1h-0.1V42.4z M37.4,18l-3.2,2.7l1,1.2
	c0.8,0.9,2.1,1,3,0.3c0.9-0.8,1-2.1,0.3-3c0,0,0,0,0,0L37.4,18z M17.3,33.8c-0.9,0.8-1,2.1-0.3,3c0,0,0,0,0,0l1,1.2l0,0l3.2-2.7l0,0
	l-1-1.2C19.6,33.2,18.2,33.1,17.3,33.8z"/>
</svg>
