<svg width="162" height="56" fill="none" xmlns="http://www.w3.org/2000/svg"><path fill-rule="evenodd" clip-rule="evenodd" d="M24.145 48.29c13.335 0 24.145-10.81 24.145-24.145C48.29 10.81 37.48 0 24.145 0 10.81 0 0 10.81 0 24.145 0 37.48 10.81 48.29 24.145 48.29z" fill="#01C5AA"/><path fill-rule="evenodd" clip-rule="evenodd" d="M30.638 51.13c13.334 0 24.144-10.81 24.144-24.145 0-13.334-10.81-24.144-24.144-24.144-13.335 0-24.145 10.81-24.145 24.144 0 13.335 10.81 24.145 24.145 24.145z" fill="#0157D8"/><path fill-rule="evenodd" clip-rule="evenodd" d="M24.956 56c13.335 0 24.145-10.81 24.145-24.145 0-13.335-10.81-24.145-24.145-24.145C11.622 7.71.813 18.52.813 31.855.812 45.19 11.622 56 24.956 56z" fill="#4000BE"/><path fill-rule="evenodd" clip-rule="evenodd" d="M26.5 50C38.926 50 49 39.926 49 27.5S38.926 5 26.5 5 4 15.074 4 27.5 14.074 50 26.5 50z" fill="#00A96D"/><path fill-rule="evenodd" clip-rule="evenodd" d="M37.808 21.286v1.433a4.263 4.263 0 01-1.518 2.633 4.306 4.306 0 01-2.13.935.333.333 0 00-.284.401c.216.927.466 2.345-1.232 3.73-2.38 1.94-4.8 1.615-6.839-1.067l-.686-.817-.653-.777-.053-.062c-.595-.714-1.597-1.915-3.094-.576-1.173 1.047-.08 2.456.354 2.943l2.82 3.351a.483.483 0 01-.067.69l-6.116 4.986a.449.449 0 01-.629-.06l-2.293-2.725c-1.656-1.971-1.335-4.868.771-6.365.577-.41 1.22-.66 1.89-.757.2-.029.337-.22.292-.415-.216-.926-.46-2.34 1.235-3.72 2.38-1.94 4.799-1.616 6.838 1.066l.68.808.66.786.052.063c.595.713 1.597 1.914 3.095.576 1.172-1.047.08-2.457-.355-2.944l-2.83-3.367a.467.467 0 01.062-.663l6.111-4.984a.472.472 0 01.66.061l2.287 2.72c.526.625.848 1.36.972 2.117zM14.112 16H14v.113l.112-.113zM14 39.266l.112.113H14v-.113zm20.017-19.557l-2.657 2.166.838.997c.537.638 1.645.89 2.459.228.813-.663.733-1.756.198-2.395l-.838-.996zm-16.451 12.66c-.814.662-.734 1.755-.199 2.394l.832.99c.004.004.009.004.013.002l2.641-2.153c.005-.004.005-.009.002-.013l-.83-.99c-.538-.64-1.646-.893-2.46-.23z" fill="#fff"/><path d="M82.763 41l-1.86-2.82c2.1-.14 3.55-.47 4.35-.99.82-.5 1.23-1.28 1.23-2.34v-.87c-.84.92-2 1.38-3.48 1.38-1.88 0-3.41-.69-4.59-2.07-1.16-1.4-1.74-3.39-1.74-5.97 0-2.48.58-4.43 1.74-5.85 1.18-1.44 2.72-2.16 4.62-2.16 1.44 0 2.59.43 3.45 1.29v-.93h3.51v13.8c0 2.54-.55 4.38-1.65 5.52-1.08 1.14-2.94 1.81-5.58 2.01zm.84-9c1.26 0 2.22-.5 2.88-1.5v-6.36c-.7-1-1.66-1.5-2.88-1.5-1.1 0-1.95.4-2.55 1.2-.58.8-.87 1.96-.87 3.48 0 1.44.3 2.58.9 3.42.6.84 1.44 1.26 2.52 1.26zm17.23 3.36c-2.18 0-3.91-.71-5.19-2.13-1.26-1.44-1.89-3.41-1.89-5.91 0-2.48.64-4.43 1.92-5.85 1.28-1.44 3-2.16 5.16-2.16 1.96 0 3.56.61 4.8 1.83 1.26 1.22 1.89 3.01 1.89 5.37 0 .82-.04 1.54-.12 2.16h-10.17c.06 1.08.43 1.95 1.11 2.61.7.66 1.53.99 2.49.99 1.36 0 2.44-.53 3.24-1.59l2.22 2.28c-1.34 1.6-3.16 2.4-5.46 2.4zm-3.57-9.6h6.78c-.08-1.1-.42-1.93-1.02-2.49-.6-.58-1.33-.87-2.19-.87-1 0-1.83.28-2.49.84-.64.54-1 1.38-1.08 2.52zm18.117 9.6c-2.38 0-3.57-1.31-3.57-3.93v-8.7h-2.28v-3.06h2.28v-4.65l3.51-1.68v6.33h3.54v3.06h-3.54v8.01c0 .98.43 1.47 1.29 1.47.78 0 1.58-.23 2.4-.69l-.42 3.15c-.88.46-1.95.69-3.21.69zm17.696-18.39c-.4.4-.89.6-1.47.6a2.1 2.1 0 01-1.5-.6 2.1 2.1 0 01-.6-1.5c0-.58.2-1.07.6-1.47.42-.4.92-.6 1.5-.6s1.07.2 1.47.6c.4.4.6.89.6 1.47s-.2 1.08-.6 1.5zM129.836 35V19.67h3.51V35h-3.51zm12.526.36c-2.38 0-3.57-1.31-3.57-3.93v-8.7h-2.28v-3.06h2.28v-4.65l3.51-1.68v6.33h3.54v3.06h-3.54v8.01c0 .98.43 1.47 1.29 1.47.78 0 1.58-.23 2.4-.69l-.42 3.15c-.88.46-1.95.69-3.21.69zm8.243-6.15l-.87-8.85v-6.72h3.51v6.72l-.84 8.85h-1.8zm.9 6.15c-.7 0-1.28-.23-1.74-.69-.46-.46-.69-1.02-.69-1.68 0-.66.23-1.22.69-1.68.46-.48 1.04-.72 1.74-.72.68 0 1.26.24 1.74.72.48.46.72 1.02.72 1.68 0 .64-.24 1.2-.72 1.68-.48.46-1.06.69-1.74.69z" fill="#3C3C3C"/></svg>