<svg width="196" height="57" viewBox="0 0 196 57" fill="none" xmlns="http://www.w3.org/2000/svg">
<path d="M10.0077 11.4733H17.0141V38.835H10.0077V11.4733ZM32.0585 39.1669C29.9197 39.1669 27.9899 38.7244 26.269 37.8394C24.5481 36.9543 23.196 35.7252 22.2127 34.1518C21.2539 32.5784 20.7745 30.7961 20.7745 28.8048C20.7745 26.8381 21.2539 25.0681 22.2127 23.4947C23.196 21.9214 24.5358 20.7045 26.2321 19.844C27.953 18.959 29.8951 18.5165 32.0585 18.5165C34.2218 18.5165 36.164 18.959 37.8848 19.844C39.6057 20.7045 40.9455 21.9214 41.9043 23.4947C42.863 25.0435 43.3424 26.8135 43.3424 28.8048C43.3424 30.7961 42.863 32.5784 41.9043 34.1518C40.9455 35.7252 39.6057 36.9543 37.8848 37.8394C36.164 38.7244 34.2218 39.1669 32.0585 39.1669ZM32.0585 33.5987C33.2877 33.5987 34.2956 33.1807 35.0823 32.3449C35.869 31.4845 36.2623 30.3044 36.2623 28.8048C36.2623 27.3298 35.869 26.1744 35.0823 25.3385C34.2956 24.5027 33.2877 24.0847 32.0585 24.0847C30.8293 24.0847 29.8213 24.5027 29.0347 25.3385C28.248 26.1744 27.8546 27.3298 27.8546 28.8048C27.8546 30.3044 28.248 31.4845 29.0347 32.3449C29.8213 33.1807 30.8293 33.5987 32.0585 33.5987ZM56.1204 31.8286L54.0554 33.9305V38.835H47.049V11.4733H54.0554V25.8179L61.2093 18.8484H69.5063L61.2093 27.4035L70.2069 38.835H61.7255L56.1204 31.8286ZM80.9481 18.5165C84.2669 18.5165 86.7991 19.2786 88.5445 20.8028C90.29 22.3024 91.1627 24.6133 91.1627 27.7354V38.835H84.6357V36.2537C83.6278 38.1958 81.6611 39.1669 78.7356 39.1669C77.1868 39.1669 75.847 38.8965 74.7161 38.3556C73.5853 37.8148 72.7248 37.0896 72.1348 36.18C71.5694 35.2458 71.2867 34.1887 71.2867 33.0086C71.2867 31.1157 72.0119 29.653 73.4624 28.6204C74.9128 27.5633 77.1499 27.0348 80.1737 27.0348H84.1563C84.0334 24.9206 82.6198 23.8635 79.9156 23.8635C78.9568 23.8635 77.9858 24.0233 77.0024 24.3429C76.0191 24.6379 75.1832 25.0558 74.4949 25.5966L72.1348 20.8397C73.2411 20.1022 74.5809 19.5367 76.1543 19.1434C77.7522 18.7255 79.3502 18.5165 80.9481 18.5165ZM80.69 34.7418C81.5013 34.7418 82.2142 34.5451 82.8288 34.1518C83.4434 33.7585 83.8859 33.1807 84.1563 32.4186V30.6855H81.1325C79.092 30.6855 78.0718 31.3615 78.0718 32.7136C78.0718 33.3282 78.3054 33.8199 78.7725 34.1887C79.2396 34.5574 79.8787 34.7418 80.69 34.7418ZM108.621 18.5165C110.44 18.5165 112.087 18.9344 113.562 19.7703C115.062 20.6061 116.242 21.8107 117.102 23.3841C117.987 24.9329 118.43 26.7398 118.43 28.8048C118.43 30.8699 117.987 32.6891 117.102 34.2624C116.242 35.8358 115.062 37.0527 113.562 37.9131C112.087 38.749 110.44 39.1669 108.621 39.1669C105.99 39.1669 104.024 38.3925 102.721 36.8437V38.835H96.0461V11.4733H103.052V20.5815C104.405 19.2049 106.261 18.5165 108.621 18.5165ZM107.146 33.5987C108.375 33.5987 109.383 33.1807 110.17 32.3449C110.956 31.4845 111.35 30.3044 111.35 28.8048C111.35 27.3298 110.956 26.1744 110.17 25.3385C109.383 24.5027 108.375 24.0847 107.146 24.0847C105.917 24.0847 104.909 24.5027 104.122 25.3385C103.335 26.1744 102.942 27.3298 102.942 28.8048C102.942 30.3044 103.335 31.4845 104.122 32.3449C104.909 33.1807 105.917 33.5987 107.146 33.5987ZM142.576 28.8786C142.576 28.9277 142.539 29.5055 142.466 30.6117H127.937C128.232 31.6442 128.797 32.4432 129.633 33.0086C130.493 33.5495 131.563 33.8199 132.841 33.8199C133.8 33.8199 134.623 33.6847 135.312 33.4143C136.025 33.1439 136.738 32.7014 137.451 32.0868L141.138 35.9218C139.196 38.0852 136.357 39.1669 132.62 39.1669C130.284 39.1669 128.232 38.7244 126.462 37.8394C124.692 36.9543 123.315 35.7252 122.332 34.1518C121.373 32.5784 120.893 30.7961 120.893 28.8048C120.893 26.8381 121.361 25.0804 122.295 23.5316C123.253 21.9582 124.569 20.729 126.24 19.844C127.912 18.959 129.793 18.5165 131.882 18.5165C133.874 18.5165 135.681 18.9344 137.303 19.7703C138.926 20.5815 140.204 21.7739 141.138 23.3472C142.097 24.896 142.576 26.7398 142.576 28.8786ZM131.919 23.4947C130.838 23.4947 129.928 23.802 129.19 24.4166C128.478 25.0312 128.023 25.8671 127.826 26.9242H136.012C135.816 25.8671 135.349 25.0312 134.611 24.4166C133.898 23.802 133.001 23.4947 131.919 23.4947ZM166.697 28.8786C166.697 28.9277 166.66 29.5055 166.586 30.6117H152.057C152.352 31.6442 152.918 32.4432 153.753 33.0086C154.614 33.5495 155.683 33.8199 156.962 33.8199C157.92 33.8199 158.744 33.6847 159.432 33.4143C160.145 33.1439 160.858 32.7014 161.571 32.0868L165.259 35.9218C163.316 38.0852 160.477 39.1669 156.74 39.1669C154.405 39.1669 152.352 38.7244 150.582 37.8394C148.812 36.9543 147.435 35.7252 146.452 34.1518C145.493 32.5784 145.014 30.7961 145.014 28.8048C145.014 26.8381 145.481 25.0804 146.415 23.5316C147.374 21.9582 148.689 20.729 150.361 19.844C152.033 18.959 153.913 18.5165 156.003 18.5165C157.994 18.5165 159.801 18.9344 161.424 19.7703C163.046 20.5815 164.324 21.7739 165.259 23.3472C166.217 24.896 166.697 26.7398 166.697 28.8786ZM156.04 23.4947C154.958 23.4947 154.048 23.802 153.311 24.4166C152.598 25.0312 152.143 25.8671 151.946 26.9242H160.133C159.936 25.8671 159.469 25.0312 158.732 24.4166C158.019 23.802 157.121 23.4947 156.04 23.4947ZM177.653 39.1669C175.981 39.1669 174.334 38.9825 172.711 38.6138C171.089 38.2204 169.786 37.7164 168.802 37.1018L170.904 32.308C171.814 32.8734 172.896 33.3282 174.149 33.6724C175.403 33.992 176.645 34.1518 177.874 34.1518C179.005 34.1518 179.804 34.0412 180.271 33.8199C180.762 33.5741 181.008 33.2299 181.008 32.7874C181.008 32.3449 180.713 32.0376 180.123 31.8655C179.558 31.6688 178.648 31.4845 177.394 31.3124C175.796 31.1157 174.432 30.8576 173.301 30.538C172.195 30.2184 171.236 29.6284 170.425 28.7679C169.614 27.9075 169.208 26.7029 169.208 25.1541C169.208 23.8758 169.589 22.7449 170.351 21.7616C171.113 20.7536 172.22 19.967 173.67 19.4015C175.145 18.8115 176.903 18.5165 178.943 18.5165C180.394 18.5165 181.832 18.664 183.258 18.959C184.684 19.254 185.876 19.6719 186.835 20.2128L184.733 24.9698C182.963 23.9864 181.045 23.4947 178.98 23.4947C177.874 23.4947 177.063 23.6299 176.546 23.9004C176.03 24.1462 175.772 24.4781 175.772 24.896C175.772 25.3631 176.055 25.695 176.62 25.8916C177.185 26.0637 178.12 26.2481 179.423 26.4448C181.07 26.6906 182.434 26.9733 183.516 27.2929C184.597 27.6125 185.532 28.2025 186.318 29.063C187.13 29.8988 187.535 31.0788 187.535 32.603C187.535 33.8568 187.154 34.9876 186.392 35.9956C185.63 36.9789 184.499 37.7533 183 38.3187C181.525 38.8842 179.742 39.1669 177.653 39.1669Z" fill="black"/>
<path d="M21.224 44.3308L18.6763 51.952H17.5332L15.4537 45.866L13.3742 51.952H12.2092L9.6616 44.3308H10.783L12.8407 50.5258L14.9855 44.3308H15.9872L18.0884 50.5584L20.1897 44.3308H21.224ZM23.6445 44.3308H24.7333V51.952H23.6445V44.3308ZM33.199 51.952L31.555 49.6112C31.3517 49.6257 31.1921 49.633 31.0759 49.633H29.1924V51.952H28.1037V44.3308H31.0759C32.063 44.3308 32.8397 44.5667 33.4058 45.0385C33.972 45.5103 34.255 46.1599 34.255 46.9874C34.255 47.5753 34.1099 48.0761 33.8195 48.4898C33.5292 48.9035 33.1155 49.2048 32.5784 49.3935L34.3857 51.952H33.199ZM31.0433 48.7076C31.7328 48.7076 32.259 48.5588 32.6219 48.2612C32.9848 47.9636 33.1663 47.539 33.1663 46.9874C33.1663 46.4357 32.9848 46.0148 32.6219 45.7244C32.259 45.4268 31.7328 45.278 31.0433 45.278H29.1924V48.7076H31.0433ZM41.1153 44.3308H42.2041V51.0048H46.3304V51.952H41.1153V44.3308ZM48.6684 44.3308H49.7572V51.952H48.6684V44.3308ZM58.6583 51.0048V51.952H53.1276V44.3308H58.5059V45.278H54.2163V47.6188H58.0378V48.5443H54.2163V51.0048H58.6583ZM66.6379 47.9999C67.0807 48.1233 67.4291 48.3483 67.6831 48.6749C67.9371 48.9943 68.0642 49.4007 68.0642 49.8943C68.0642 50.5548 67.8138 51.0629 67.3129 51.4185C66.8194 51.7742 66.0972 51.952 65.1464 51.952H61.51V44.3308H64.9286C65.7996 44.3308 66.471 44.505 66.9428 44.8534C67.4218 45.2018 67.6613 45.6845 67.6613 46.3015C67.6613 46.7007 67.567 47.0454 67.3783 47.3358C67.1968 47.6261 66.95 47.8475 66.6379 47.9999ZM62.5987 45.2127V47.6515H64.8306C65.3895 47.6515 65.8177 47.5499 66.1153 47.3466C66.4202 47.1362 66.5726 46.8313 66.5726 46.4321C66.5726 46.0329 66.4202 45.7317 66.1153 45.5285C65.8177 45.318 65.3895 45.2127 64.8306 45.2127H62.5987ZM65.1028 51.0701C65.7198 51.0701 66.1843 50.9685 66.4964 50.7653C66.8085 50.562 66.9645 50.2427 66.9645 49.8072C66.9645 48.958 66.344 48.5334 65.1028 48.5334H62.5987V51.0701H65.1028ZM76.3694 51.0048V51.952H70.8387V44.3308H76.217V45.278H71.9274V47.6188H75.7488V48.5443H71.9274V51.0048H76.3694ZM85.7752 44.3308V51.952H84.8825L80.3098 46.2688V51.952H79.2211V44.3308H80.1138L84.6865 50.014V44.3308H85.7752ZM95.64 48.566L94.2465 49.9814V51.952H93.1577V44.3308H94.2465V48.5878L98.3837 44.3308H99.6248L96.3695 47.7604L99.8317 51.952H98.5578L95.64 48.566ZM102.072 44.3308H103.16V51.0048H107.287V51.952H102.072V44.3308ZM115.156 51.0048V51.952H109.625V44.3308H115.003V45.278H110.714V47.6188H114.535V48.5443H110.714V51.0048H115.156ZM118.007 44.3308H119.096V51.952H118.007V44.3308ZM129.021 44.3308V51.952H128.128L123.555 46.2688V51.952H122.466V44.3308H123.359L127.932 50.014V44.3308H129.021ZM137.921 51.0048V51.952H132.39V44.3308H137.769V45.278H133.479V47.6188H137.301V48.5443H133.479V51.0048H137.921ZM144.785 44.3308H145.874V51.0048H150V51.952H144.785V44.3308ZM157.226 50.0467H153.176L152.338 51.952H151.216L154.668 44.3308H155.746L159.208 51.952H158.065L157.226 50.0467ZM156.845 49.1757L155.201 45.4414L153.557 49.1757H156.845ZM154.2 43.5252C154.047 43.5252 153.916 43.4744 153.808 43.3728C153.699 43.2639 153.644 43.1296 153.644 42.9699C153.644 42.8102 153.699 42.676 153.808 42.5671C153.916 42.4582 154.047 42.4038 154.2 42.4038C154.352 42.4038 154.483 42.4582 154.591 42.5671C154.7 42.676 154.755 42.8102 154.755 42.9699C154.755 43.1296 154.7 43.2639 154.591 43.3728C154.483 43.4744 154.352 43.5252 154.2 43.5252ZM156.225 43.5252C156.072 43.5252 155.941 43.4744 155.833 43.3728C155.724 43.2639 155.669 43.1296 155.669 42.9699C155.669 42.8102 155.724 42.676 155.833 42.5671C155.941 42.4582 156.072 42.4038 156.225 42.4038C156.377 42.4038 156.508 42.4582 156.617 42.5671C156.725 42.676 156.78 42.8102 156.78 42.9699C156.78 43.1296 156.725 43.2639 156.617 43.3728C156.508 43.4744 156.377 43.5252 156.225 43.5252ZM161.433 44.3308H164.645C165.451 44.3308 166.166 44.4905 166.79 44.8099C167.414 45.1293 167.897 45.5793 168.238 46.1599C168.586 46.7333 168.761 47.3938 168.761 48.1414C168.761 48.889 168.586 49.5531 168.238 50.1338C167.897 50.7072 167.414 51.1536 166.79 51.473C166.166 51.7923 165.451 51.952 164.645 51.952H161.433V44.3308ZM164.58 51.0048C165.197 51.0048 165.737 50.885 166.202 50.6455C166.674 50.406 167.037 50.0721 167.291 49.6439C167.545 49.2084 167.672 48.7076 167.672 48.1414C167.672 47.5753 167.545 47.0781 167.291 46.6499C167.037 46.2144 166.674 45.8769 166.202 45.6373C165.737 45.3978 165.197 45.278 164.58 45.278H162.522V51.0048H164.58ZM177.048 51.0048V51.952H171.517V44.3308H176.895V45.278H172.606V47.6188H176.427V48.5443H172.606V51.0048H177.048ZM186.453 44.3308V51.952H185.561L180.988 46.2688V51.952H179.899V44.3308H180.792L185.365 50.014V44.3308H186.453Z" fill="black"/>
</svg>
