<svg width="152" height="152" viewBox="0 0 152 152" fill="none" xmlns="http://www.w3.org/2000/svg">
<rect x="4.07974" y="57.5616" width="105" height="105" rx="52.5" transform="rotate(-30.6206 4.07974 57.5616)" fill="black" stroke="white" stroke-width="5"/>
<path d="M105.041 58.4628C98.815 53.7921 89.0007 50.2663 78.2072 52.0001C78.1969 51.9828 78.1904 51.9652 78.1793 51.9465C75.9975 48.2602 72.3604 45.9586 68.428 45.3379C67.8069 43.746 68.4036 41.8906 69.9211 40.9924C71.1157 40.2853 71.5095 38.7445 70.8033 37.5513C70.097 36.358 68.5569 35.962 67.3622 36.6691C64.2177 38.5302 62.721 42.0937 63.3003 45.4988C61.9053 45.8049 60.5368 46.3269 59.2456 47.0912C57.9673 47.8477 56.8637 48.7811 55.9318 49.8367C53.2271 47.7033 49.3887 47.3073 46.25 49.165C45.0568 49.8713 44.6616 51.4129 45.3678 52.6061C46.0741 53.7993 47.6157 54.1946 48.8089 53.4883C50.3149 52.597 52.2126 52.9527 53.314 54.235C51.9397 57.9986 52.1972 62.3199 54.3919 66.0278C54.403 66.0466 54.4153 66.0607 54.4255 66.078C47.7134 74.7075 46.0807 85.0047 47.1805 92.7116C48.4444 101.59 53.2299 108.133 59.6676 109.781C62.3379 110.466 65.8288 109.7 69.2457 107.677C70.8294 106.74 72.2749 105.589 73.5886 104.293C81.0917 110.03 89.1993 111.435 95.2216 107.87C101.208 104.327 103.904 96.5259 102.502 87.2037C104.281 86.6563 105.985 85.9318 107.549 85.0064C110.966 82.984 113.315 80.2932 114.003 77.6212C115.648 71.1889 112.214 63.8442 105.041 58.4628ZM61.8022 51.4139C65.5231 49.2115 70.2124 50.0886 72.9404 53.2609C70.3153 54.1025 67.6595 55.2541 65.005 56.8252C62.3505 58.3964 60.0633 60.1705 58.0625 62.0669C56.594 58.1491 58.0798 53.6171 61.8022 51.4139ZM80.5723 83.7807C80.6674 83.7244 80.7691 83.6759 80.8642 83.6196C80.9737 83.5548 81.0781 83.4813 81.1874 83.4128C82.7989 84.5606 84.4424 85.4929 86.1024 86.2131C84.3692 87.3616 82.5557 88.4271 80.6612 89.4181C80.8175 87.726 80.8199 85.8429 80.5723 83.7807ZM60.9128 104.915C56.4806 103.779 53.1251 98.8295 52.1521 92.001C50.9055 83.2601 53.7381 70.6044 65.4481 62.5021L71.1194 72.0839C75.3783 79.2794 76.7342 86.2782 75.0457 92.3254C73.2139 98.8933 68.5873 102.225 66.6836 103.352C64.0357 104.921 61.9207 105.175 60.9128 104.915ZM92.659 103.547C90.395 104.887 87.5361 105.1 84.465 104.301C86.7546 103.28 88.9783 102.155 91.0938 100.903C93.2252 99.6412 95.297 98.2165 97.3122 96.6832C96.5407 99.7786 94.9633 102.183 92.659 103.547ZM97.7552 89.8631C91.938 94.9447 85.4588 98.7797 78.2319 101.43C77.7476 101.112 77.2628 100.776 76.7839 100.417C77.7554 98.9452 78.5799 97.3694 79.2114 95.7074C81.5764 94.65 83.8645 93.5118 85.9771 92.2613C88.159 90.97 90.2599 89.5221 92.2823 87.9943C94.068 88.2528 95.8323 88.2944 97.5581 88.1525C97.6442 88.732 97.7086 89.3011 97.7552 89.8631ZM109.132 76.3749C108.874 77.382 107.632 79.1173 104.986 80.6833C98.6755 84.4185 85.3528 86.2715 75.4422 69.5273L69.7708 59.9455C82.5048 53.5799 94.9637 57.1847 102.028 62.4822C107.544 66.6199 110.265 71.9445 109.132 76.3749Z" fill="white"/>
</svg>
