<svg width="59" height="60" viewBox="0 0 59 60" fill="none" xmlns="http://www.w3.org/2000/svg">
<mask id="path-1-outside-1" maskUnits="userSpaceOnUse" x="0" y="0" width="59" height="60" fill="black">
<rect fill="white" width="59" height="60"/>
<path fill-rule="evenodd" clip-rule="evenodd" d="M45.3148 49.5386C52.1969 45.2846 56.7825 37.6706 56.7825 28.9855C56.7825 17.8373 49.2271 8.45373 38.9574 5.67607C35.244 3.34681 30.8518 2 26.1449 2C12.8101 2 2 12.8101 2 26.1449C2 28.3486 2.29522 30.4833 2.84827 32.5117C2.82388 32.9564 2.81152 33.4043 2.81152 33.8551C2.81152 47.19 13.6216 58.0001 26.9565 58.0001C34.3048 58.0001 40.8864 54.7174 45.3148 49.5386Z"/>
</mask>
<path d="M45.3148 49.5386L44.2633 47.8373L43.9977 48.0015L43.7948 48.2388L45.3148 49.5386ZM38.9574 5.67607L37.8946 7.37034L38.1473 7.52883L38.4352 7.6067L38.9574 5.67607ZM2.84827 32.5117L4.84527 32.6212L4.863 32.298L4.77783 31.9856L2.84827 32.5117ZM46.3664 51.2398C53.8134 46.6367 58.7825 38.3922 58.7825 28.9855H54.7825C54.7825 36.9489 50.5805 43.9325 44.2633 47.8373L46.3664 51.2398ZM58.7825 28.9855C58.7825 16.911 50.5992 6.75298 39.4795 3.74544L38.4352 7.6067C47.855 10.1545 54.7825 18.7635 54.7825 28.9855H58.7825ZM40.0201 3.98181C35.9976 1.45862 31.2386 0 26.1449 0V4C30.4649 4 34.4904 5.235 37.8946 7.37034L40.0201 3.98181ZM26.1449 0C11.7055 0 0 11.7055 0 26.1449H4C4 13.9146 13.9146 4 26.1449 4V0ZM0 26.1449C0 28.528 0.31934 30.8396 0.918704 33.0378L4.77783 31.9856C4.2711 30.1271 4 28.1692 4 26.1449H0ZM0.851268 32.4022C0.824881 32.8833 0.811523 33.3678 0.811523 33.8551H4.81152C4.81152 33.4409 4.82288 33.0295 4.84527 32.6212L0.851268 32.4022ZM0.811523 33.8551C0.811523 48.2946 12.517 60.0001 26.9565 60.0001V56.0001C14.7261 56.0001 4.81152 46.0854 4.81152 33.8551H0.811523ZM26.9565 60.0001C34.9139 60.0001 42.0426 56.4426 46.8349 50.8383L43.7948 48.2388C39.7301 52.9922 33.6956 56.0001 26.9565 56.0001V60.0001Z" fill="white" mask="url(#path-1-outside-1)"/>
<path fill-rule="evenodd" clip-rule="evenodd" d="M26.1449 50.2899C39.4798 50.2899 50.2899 39.4798 50.2899 26.1449C50.2899 12.8101 39.4798 2 26.1449 2C12.8101 2 2 12.8101 2 26.1449C2 39.4798 12.8101 50.2899 26.1449 50.2899Z" fill="#01C5AA"/>
<path fill-rule="evenodd" clip-rule="evenodd" d="M32.6376 53.1304C45.9725 53.1304 56.7825 42.3204 56.7825 28.9855C56.7825 15.6506 45.9725 4.84058 32.6376 4.84058C19.3027 4.84058 8.49268 15.6506 8.49268 28.9855C8.49268 42.3204 19.3027 53.1304 32.6376 53.1304Z" fill="#0157D8"/>
<path fill-rule="evenodd" clip-rule="evenodd" d="M26.9565 58.0001C40.2913 58.0001 51.1014 47.19 51.1014 33.8551C51.1014 20.5203 40.2913 9.71021 26.9565 9.71021C13.6216 9.71021 2.81152 20.5203 2.81152 33.8551C2.81152 47.19 13.6216 58.0001 26.9565 58.0001Z" fill="#00A96D"/>
<path fill-rule="evenodd" clip-rule="evenodd" d="M28.5 52C40.9264 52 51 41.9264 51 29.5C51 17.0736 40.9264 7 28.5 7C16.0736 7 6 17.0736 6 29.5C6 41.9264 16.0736 52 28.5 52Z" fill="#4000BE"/>
<path fill-rule="evenodd" clip-rule="evenodd" d="M39.808 23.2863V24.7192C39.6439 25.7202 39.1339 26.6656 38.2898 27.3517C37.6524 27.8719 36.9236 28.177 36.1591 28.2867C35.9629 28.3152 35.8314 28.4996 35.876 28.6884C36.0922 29.6146 36.3418 31.0325 34.6435 32.4174C32.2631 34.3576 29.8448 34.0328 27.8054 31.3507L27.1189 30.5342L26.4659 29.7573L26.4135 29.6946C25.8179 28.9808 24.8163 27.7802 23.3187 29.1186C22.1464 30.1655 23.2385 31.5746 23.6731 32.0618L26.4926 35.4134C26.6687 35.6219 26.6375 35.9291 26.4257 36.1025L20.3098 41.0892C20.1204 41.245 19.8395 41.2187 19.6813 41.0299L17.3878 38.304C15.7318 36.333 16.0527 33.4358 18.159 31.9389C18.7363 31.5285 19.3782 31.2783 20.049 31.1817C20.2496 31.1532 20.3856 30.9622 20.341 30.7669C20.1248 29.8407 19.8819 28.4272 21.5758 27.0466C23.9562 25.1064 26.3745 25.4312 28.4139 28.1133L29.0937 28.921L29.7534 29.7068L29.8058 29.7695C30.4013 30.4833 31.403 31.6838 32.9005 30.3455C34.0729 29.2985 32.9807 27.8894 32.5461 27.4022L29.7155 24.0353C29.5483 23.8356 29.5751 23.5393 29.7779 23.3725L35.8894 18.388C36.09 18.2256 36.3842 18.2519 36.5491 18.4494L38.8359 21.1688C39.3617 21.7942 39.684 22.5288 39.808 23.2863ZM16.1121 18H16V18.1128C16.0372 18.075 16.0746 18.0374 16.1121 18ZM16 41.2656C16.0372 41.3034 16.0746 41.341 16.1121 41.3785H16V41.2656ZM36.0169 21.7087L33.3601 23.875L34.1981 24.8715C34.7353 25.5102 35.843 25.7626 36.6565 25.0998C37.4701 24.4369 37.3898 23.3439 36.8549 22.7052L36.0169 21.7087ZM19.5657 34.3686C18.7521 35.0314 18.8324 36.1244 19.3673 36.7631L20.1986 37.753C20.2031 37.7574 20.2076 37.7574 20.212 37.7552L22.8532 35.6021C22.8576 35.5977 22.8576 35.5933 22.8554 35.5889L22.0241 34.599C21.4869 33.9581 20.3792 33.7057 19.5657 34.3686Z" fill="white"/>
</svg>
