<svg xmlns="http://www.w3.org/2000/svg" viewBox="0 0 300 300"><path d="M150 3.8C68.3 3.8 2 69 2 149.5 2 230 68.3 295.3 150 295.3S298 230 298 149.5C298 69 231.7 3.8 150 3.8zm45.8 94.8l23.3-19 7.3 8.7c4.7 5.6 5.4 15.2-1.7 21-7.1 5.8-16.8 3.6-21.5-2l-7.4-8.7zM73.2 211.5c-4.7-5.6-5.4-15.2 1.7-21 7.1-5.8 16.8-3.6 21.5 2l7.3 8.7v.1l-23.1 18.9h-.1l-7.3-8.7zm147.1-74.3c6.7-1 13.1-3.6 18.7-8.2 16.4-13.4 18.4-38 4.8-54.2l-20-23.8c-1.4-1.7-4-2-5.8-.5l-53.5 43.7c-1.8 1.5-2 4.1-.5 5.8l24.8 29.5c3.8 4.3 13.4 16.6 3.1 25.8-13.1 11.7-21.9 1.2-27.1-5-.2-.2-.3-.4-.5-.5l-5.8-6.9-6-7.1c-17.9-23.5-39.1-26.3-59.9-9.3-14.8 12.1-12.7 24.5-10.8 32.6.4 1.7-.8 3.4-2.6 3.6-5.9.8-11.5 3-16.6 6.6-18.5 13.1-21.3 38.5-6.8 55.8L76 248.9c1.4 1.7 3.8 1.9 5.5.5l53.6-43.7c1.9-1.5 2.1-4.2.6-6L111 170.3c-3.8-4.3-13.4-16.6-3.1-25.8 13.1-11.7 21.9-1.2 27.1 5 .2.2.3.4.5.5l5.7 6.8 6 7.2c17.9 23.5 39.1 26.3 59.9 9.3 14.9-12.1 12.7-24.6 10.8-32.7-.4-1.5.7-3.1 2.4-3.4z" fill-rule="evenodd" clip-rule="evenodd" fill="#41976d"/></svg>